<?xml version="1.0" encoding="UTF-8" standalone="no"?>
<svg
   xmlns:dc="http://purl.org/dc/elements/1.1/"
   xmlns:cc="http://creativecommons.org/ns#"
   xmlns:rdf="http://www.w3.org/1999/02/22-rdf-syntax-ns#"
   xmlns:svg="http://www.w3.org/2000/svg"
   xmlns="http://www.w3.org/2000/svg"
   xmlns:sodipodi="http://sodipodi.sourceforge.net/DTD/sodipodi-0.dtd"
   xmlns:inkscape="http://www.inkscape.org/namespaces/inkscape"
   version="1.1"
   x="0px"
   y="0px"
   viewBox="0 0 100 125"
   enable-background="new 0 0 100 100"
   xml:space="preserve"
   id="svg2"
   inkscape:version="0.91 r"
   sodipodi:docname="car.svg"><metadata
     id="metadata14"><rdf:RDF><cc:Work
         rdf:about=""><dc:format>image/svg+xml</dc:format><dc:type
           rdf:resource="http://purl.org/dc/dcmitype/StillImage" /><dc:title /></cc:Work></rdf:RDF></metadata><defs
     id="defs12" /><sodipodi:namedview
     pagecolor="#ffffff"
     bordercolor="#666666"
     borderopacity="1"
     objecttolerance="10"
     gridtolerance="10"
     guidetolerance="10"
     inkscape:pageopacity="0"
     inkscape:pageshadow="2"
     inkscape:window-width="1278"
     inkscape:window-height="716"
     id="namedview10"
     showgrid="false"
     inkscape:zoom="1.6376593"
     inkscape:cx="10.176439"
     inkscape:cy="-36.518043"
     inkscape:window-x="88"
     inkscape:window-y="24"
     inkscape:window-maximized="0"
     inkscape:current-layer="svg2" /><path
     style="fill:#c5283d;fill-opacity:1"
     inkscape:connector-curvature="0"
     d="m 3.4011503,34.906046 1.193,0 c 1.296,-2.09 4.688,-5.251 10.2179997,-8.073 3.037,-1.548 6.804,-3.045 11.415,-4.277 4.942,-1.32 18.578,-4.196 22.977,-1.258 0.84,-0.406 1.543,0.485 1.297,1.175 1.247,1.17 4.047,3.721 6.977,6.322 4.601,-0.293 8.424,-0.489 11.628,-0.596 5.833,-0.196 11.576,-0.211 17.28,1.139 3.663,0.867 7.015,2.29 10.323,4.037 2.821,1.488 3.259,2.112 2.576,4.337 l 1.358,0 c 1.252,0 1.252,1.878 0,1.878 l -1.953,0 c -0.327,1.138 -0.83,2.666 -1.94,2.958 -2.922,0.817 -4.918,1.114 -6.209,1.202 -1.418,0.096 -1.997,-0.061 -1.997,-0.061 -0.497,-0.136 -0.703,-0.509 -0.709,-0.899 -0.007,-0.047 -0.01,-0.097 -0.011,-0.148 -0.022,-1.507 -0.022,-2.979 -0.956,-4.268 -0.057,-0.079 -0.116,-0.156 -0.179,-0.231 0.359,0.846 0.558,1.776 0.558,2.755 0,3.897 -3.16,7.059 -7.059,7.059 -3.899,0 -7.06,-3.161 -7.06,-7.059 0,-1.314 0.359,-2.545 0.984,-3.599 -0.972,0.622 -1.673,1.38 -2.062,2.185 -0.515,1.064 -0.364,2.259 -0.367,3.401 -0.001,0.499 -0.44,0.938 -0.938,0.938 l -0.12,0 -34.512,-0.009 c -0.307,0 -0.537,-0.112 -0.694,-0.281 -0.157,-0.163 -0.256,-0.396 -0.244,-0.703 0.018,-0.46 0.015,-0.95 0.015,-1.466 0,-1.489 -0.534,-2.58 -1.714,-3.323 0.386,0.874 0.598,1.842 0.598,2.857 0,3.897 -3.161,7.059 -7.06,7.059 -3.899,0 -7.06,-3.161 -7.06,-7.059 0,-1.24 0.32,-2.405 0.881,-3.417 -1.385,0.646 -1.823,1.839 -1.823,3.949 0,0.554 -0.461,0.979 -1.013,0.937 -2.889,-0.228 -13.2149997,-1.396 -13.9759997,-5.583 l -0.622,0 c -1.253,0 -1.253,-1.878 0,-1.878 z m 23.3009997,-10.534 c -4.485,1.199 -8.13,2.651 -11.044,4.137 -2.103,1.073 -3.79,2.141 -5.13,3.128 3.873,-1.374 8.278,-2.453 12.21,-2.83 0.14,-1.123 0.909,-1.979 1.797,-2.604 4.2,-2.955 17.902,-4.546 22.384,-3.553 l 0.39,-0.247 c -4.378,-1.603 -16.65,0.913 -20.607,1.969 z m -1.996,4.307 c 0.296,-0.01 0.588,-0.015 0.874,-0.015 4.506,0 6.298,0.486 8.942,0.829 0.826,0.107 1.659,0.188 2.496,0.246 l -1.123,-3.24 -0.545,-1.575 c -2.653,0.41 -9.668,1.635 -10.644,3.755 z m 21.86,-4.182 c -1.734,-0.397 -4.63,-0.475 -9.322,0.153 l 0.428,1.233 1.37,3.953 c 3.172,0.092 6.399,-0.091 9.612,-0.34 l -1.075,-2.575 -1.013,-2.424 z m -6.254,13.38 13.044,0 10e-4,-6.221 c 0,-0.194 -0.143,-0.359 -0.319,-0.397 l -0.897,0 -2.027,0 c -3.613,0.296 -7.249,0.546 -10.842,0.461 -0.058,2.094 0.206,4.231 1.04,6.157 z m 8.691,-14.237 c -0.194,0.12 -0.401,0.244 -0.608,0.361 l 2.229,5.335 c 1.422,-0.119 2.838,-0.243 4.241,-0.354 -2.521,-2.255 -4.824,-4.358 -5.862,-5.342 z m 43.724,9.833 c -0.54,-0.229 -1.089,-0.45 -1.636,-0.66 0.345,1.253 1.609,3.041 2.273,2.781 0.498,-0.263 -0.156,-1.406 -0.637,-2.121 z m -3.041,8.433 c 2.041,0.009 4.749,-0.652 6.523,-1.15 0.259,-0.346 0.419,-0.746 0.545,-1.165 l -7.32,0 c 0.173,0.743 0.229,1.51 0.252,2.315 z m -9.499,4.172 c 2.861,0 5.181,-2.32 5.181,-5.181 0,-2.439 -1.687,-4.487 -3.97,-5.037 -0.506,-0.048 -1.046,-0.073 -1.622,-0.073 -0.192,0 -0.384,0.005 -0.573,0.013 -0.039,0.014 -0.082,0.025 -0.126,0.035 -2.328,0.508 -4.071,2.582 -4.071,5.062 -0.001,2.861 2.318,5.181 5.181,5.181 z m -9.371,-8.2 c 0.749,-1.098 1.863,-2.008 3.185,-2.674 1.633,-0.822 3.627,-1.295 5.775,-1.295 1.564,0 2.948,0.171 4.151,0.5 1.981,0.542 3.487,1.518 4.461,2.863 0.106,0.146 0.203,0.293 0.292,0.439 l 8.64,0 c 0.168,-0.429 0.395,-1.013 0.4,-1.361 -0.026,-0.062 -0.118,-0.209 -0.444,-0.453 -0.587,-0.439 -1.34,-0.887 -2.187,-1.324 0.072,0.355 0.098,0.717 0.059,1.076 -0.083,0.762 -0.545,1.573 -1.55,1.664 -2.017,0.182 -4.358,-2.945 -4.332,-5.162 -1.269,-0.434 -2.435,-0.778 -3.313,-0.986 -5.542,-1.312 -11.128,-1.28 -16.794,-1.09 -2.355,0.079 -5.054,0.206 -8.155,0.385 l 0,7.417 9.812,0 z m -43.803,8.2 c 2.861,0 5.181,-2.32 5.181,-5.181 0,-1.504 -0.628,-2.852 -1.649,-3.795 l -0.057,-0.057 c -1.063,-0.173 -2.322,-0.259 -3.795,-0.265 l -0.075,0.002 -0.68,0 c -0.812,0.009 -1.537,0.033 -2.179,0.081 -1.177,0.952 -1.927,2.404 -1.927,4.033 0,2.862 2.32,5.182 5.181,5.182 z m -0.534,-11.174 0.041,0 c 5.973,0 10.546,1.295 10.546,6.46 l 0,0.572 32.734,0.008 c -0.007,-0.781 -0.006,-1.468 0.166,-2.188 l -10.84,0 0,-9.183 -1.678,0.105 c -0.783,0.05 -1.57,0.107 -2.359,0.169 0.095,0.25 0.146,0.522 0.146,0.809 l -10e-4,8.098 -16.047,0 c -1.413,-2.395 -1.884,-5.339 -1.798,-8.11 -1.042,-0.062 -2.078,-0.156 -3.107,-0.289 -2.574,-0.333 -4.316,-0.813 -8.701,-0.813 -7.983,0 -16.8149997,3.772 -18.1509997,4.364 l 19.0489997,-0.002 z m -9.305,5.488 c 0.136,-1.631 0.611,-2.789 1.409,-3.608 l -12.6109997,0 c 1.017,2.217 8.4669997,3.292 11.2019997,3.608 z"
     id="path3344" /><text
     style="font-weight:bold;font-size:5px;font-family:'Helvetica Neue', Helvetica, Arial-Unicode, Arial, Sans-serif;fill:#000000"
     x="22.288519"
     y="114.24821"
     font-size="5px"
     font-weight="bold"
     id="text3346">Created by Simon Child</text>
<text
     style="font-weight:bold;font-size:5px;font-family:'Helvetica Neue', Helvetica, Arial-Unicode, Arial, Sans-serif;fill:#000000"
     x="22.288519"
     y="119.24821"
     font-size="5px"
     font-weight="bold"
     id="text3348">from the Noun Project</text>
<path
     style="fill:#255f85;fill-opacity:1"
     inkscape:connector-curvature="0"
     id="path4142"
     d="m 0.68355231,90.14463 0.56599999,0 c -0.106,-0.536 -0.093,-1.091 0.015,-1.652 l 0.03,-0.146 c 0.66,-3.032 3.988,-6.18 6.137,-7.32 2.438,-1.294 4.8259997,-1.623 7.5039977,-1.961 4.632,-0.584 4.666,-1.925 8.211,-4.509 2.926,-2.124 5.952,-3.571 11.236,-4.335 4.194,-0.607 12.355,-1.061 16.224,0.029 1.38,0.389 2.025,0.92 2.29,1.395 0.818,0.739 4.72,4.263 7.994,7.232 1.868,-0.066 3.736,-0.136 5.604,-0.209 20.038,-0.788 25.986,1.775 27.377,2.602 0.051,0.03 0.098,0.062 0.14,0.097 0.056,0.028 0.11,0.062 0.162,0.101 0.46,0.298 0.727,0.72 0.881,1.195 1.721,0.453 2.375,1.614 2.375,2.998 l 0,0.055 -0.436,3.766 1.143002,0 c 1.271,0 1.271,1.906 0,1.906 l -1.881002,10e-4 c -0.937,1.355 -2.852,2.503 -6.543,3.001 l 0.048,-0.011 c -1.103,0.167 -1.331,-1.134 -1.411,-1.915 -0.327,-3.175 -0.616,-5.907 -3.556,-7.88 -0.303,-0.038 -0.606,-0.075 -0.912,-0.108 2.352,1.177 3.967,3.607 3.967,6.416 0,3.959 -3.209,7.168 -7.169,7.168 -3.959,0 -7.168,-3.209 -7.168,-7.168 0,-3.125 1.999,-5.782 4.789,-6.765 -0.325,-0.006 -0.649,-0.01 -0.974,-0.013 -2.479,1.231 -4.185,3.782 -4.206,6.728 0,3.171 -1.089,5.078 -4.547,5.078 l -28.779,-0.004 c -1.908,0 -3.012,-0.781 -3.259,-2.31 -0.63,-3.168 -0.317,-5.923 -2.997,-8.352 -0.229,-0.03 -0.462,-0.059 -0.692,-0.083 1.728,1.31 2.847,3.385 2.847,5.72 0,3.959 -3.21,7.168 -7.171,7.168 -3.958,0 -7.168,-3.209 -7.168,-7.168 0,-2.439 1.218,-4.594 3.08,-5.889 l -0.646,0.039 c -1.679,1.38 -2.753,3.465 -2.771,5.8 0,1.444 0.107,3.359 -1.331,4.235 l -0.006,0.005 c -0.642,0.388 -1.462,0.498 -2.397,0.491 -3.887,-0.015 -12.1159977,-0.392 -15.0359977,-3.521 l -1.56299999,0 c -1.272,0.002 -1.272,-1.907 -0.001,-1.907 z M 33.82055,72.23763 c -4.458,0.744 -7.036,2.033 -9.562,3.867 -2.309,1.683 -3.24,2.862 -4.755,3.677 1.916,-0.182 3.874,-0.296 5.752,-0.356 0.159,-1.801 1.636,-3.272 3.455,-4.343 1.452,-0.855 3.28,-1.554 5.3,-2.046 l -0.19,-0.799 z m 0.649,2.65 c -1.884,0.459 -3.53,1.098 -4.79,1.839 -1.552,0.91 -2.314,1.85 -2.489,2.656 1.56,-0.02 3.026,0.002 4.33,0.055 1.345,0.055 2.767,0.123 4.183,0.172 -0.374,-1.412 -0.808,-3.04 -1.234,-4.722 z m 1.249,-2.918 0.164,0.684 c 2.285,-0.382 4.602,-0.465 6.919,-0.512 2.756,-0.057 4.887,0.021 6.479,0.407 0.004,-0.214 0.032,-0.427 0.087,-0.635 -3.482,-0.703 -9.793,-0.402 -13.649,0.056 z m 14.815,3.336 c -0.705,-0.865 -2.45,-1.366 -7.692,-1.258 -2.175,0.044 -4.353,0.115 -6.501,0.463 0.472,1.859 0.952,3.648 1.349,5.151 0.328,0.005 0.652,0.009 0.971,0.01 1.643,0.005 3.135,-0.062 6.195,-0.193 2.812,-0.121 5.624,-0.229 8.438,-0.33 -0.805,-1.113 -2.76,-3.843 -2.76,-3.843 z m -12.344,6.271 c 0.066,0.259 0.127,0.499 0.18,0.719 0.854,3.54 4.77,3.22 4.889,3.208 l 7.6,-0.17 c 1.123,0 6.294,-0.064 4.813,-2.905 l -1.032,-1.421 c -3.239,0.117 -6.479,0.237 -9.725,0.378 -3.08,0.133 -4.594,0.198 -6.259,0.192 l -0.466,-0.001 z m 13.271,-8.66 c -0.104,-0.118 -0.193,-0.292 -0.262,-0.435 0,0 -0.009,0.033 -0.011,0.073 -0.014,0.216 0.066,0.474 0.29,0.788 1.338,1.886 2.931,4.097 4.108,5.722 l 2.571,-0.091 c -2.953,-2.674 -6.654,-6.009 -6.696,-6.057 z m 38.786,19.353 0.011,0.105 c 1.44,-0.25 2.448,-0.601 3.156,-0.986 l -3.263,0 c 0.034,0.291 0.065,0.584 0.096,0.881 z m -14.828,-1.378 c 0,2.906 2.355,5.262 5.261,5.262 2.906,0 5.262,-2.355 5.262,-5.262 0,-2.907 -2.355,-5.262 -5.262,-5.262 -2.906,10e-4 -5.261,2.356 -5.261,5.262 z m -37.006,2.393 c 0.223,0.59 0.768,0.725 1.383,0.725 l 28.777,0.004 c 1.903,0 2.541,-0.577 2.628,-2.625 l -33.109,10e-4 c 0.094,0.611 0.193,1.241 0.321,1.895 z m -15.151,-2.393 c 0,2.906 2.355,5.262 5.26,5.262 2.906,0 5.262,-2.355 5.262,-5.262 0,-2.907 -2.355,-5.262 -5.262,-5.262 -2.905,10e-4 -5.26,2.356 -5.26,5.262 z m -20.0329977,-0.747 7.3899997,0 c 1.272,0 1.272,1.908 0,1.908 l -4.9109997,0 c 3.393,1.376 9.0769977,1.604 11.5849977,1.612 0.838,0.008 1.224,-0.107 1.403,-0.217 0.513,-0.312 0.413,-2.183 0.413,-2.609 0.013,-2.076 0.695,-3.997 1.841,-5.554 -2.546,0.266 -5.075,0.644 -7.56,1.058 -1.253998,0.209 -1.567998,-1.672 -0.314,-1.882 7.528,-1.255 15.451,-2.162 23.012,-0.733 1.026,0.194 0.972,1.491 0.229,1.819 0.839,1.248 1.213,2.544 1.471,3.935 l 33.53,0 c 0.311,-2.07 1.292,-3.922 2.713,-5.327 -4.332,0.134 -8.644,0.554 -12.683,0.993 -1.264,0.138 -1.471,-1.759 -0.206,-1.896 7.803,-0.85 16.102,-1.623 24.02,-0.56 l 0.119,0.016 c 2.016,0.275 4.007,0.672 5.959,1.216 1.225,0.342 0.712,2.178 -0.513,1.837 -0.85,-0.237 -1.714,-0.443 -2.591,-0.623 0.947,1.284 1.434,2.737 1.735,4.344 l 5.186,0 c 0.018,-0.073 0.031,-0.145 0.042,-0.211 l 0.423,-3.662 c -0.004,-0.315 -0.055,-0.566 -0.253,-0.762 0.024,1.059 -0.003,1.864 -0.003,1.864 -0.042,1.272 -1.949,1.207 -1.906,-0.064 0,0 0.027,-0.822 0,-1.869 0,-0.2 0.013,-1.394 -0.176,-1.667 -0.18,-0.136 -0.212,-0.157 -0.285,-0.201 -0.894,-0.531 -6.371,-3.121 -26.338,-2.337 -3.207,0.128 -6.414,0.239 -9.625,0.354 0,0 0.415,0.598 0.501,0.771 2.183,4.375 -3.258,5.544 -6.568,5.544 l -7.5,0.168 c -3.086,0.243 -6.065,-1.41 -6.854,-4.665 -0.083,-0.354 -0.188,-0.761 -0.304,-1.214 -1.188,-0.038 -2.659,-0.099 -4.709,-0.185 l -0.059,-0.002 c -4.898,-0.198 -12.166,0.077 -17.553,1.149 -3.045998,0.605 -6.3379977,1.532 -8.0889977,4.346 -0.967,1.56 -0.535,2.602 -2.725,2.732 0.022,0.209 0.074,0.399 0.153,0.574 z" /><rect
     style="fill:none;fill-opacity:1;stroke:none"
     id="rect4136"
     width="200"
     height="75"
     x="-42.236263"
     y="136.55659"
     inkscape:export-xdpi="90"
     inkscape:export-ydpi="90" /><rect
     y="229.82085"
     x="-42.580334"
     height="75"
     width="200"
     id="rect4138"
     style="fill:none;fill-opacity:1;stroke:none"
     inkscape:export-xdpi="90"
     inkscape:export-ydpi="90" /><g
     id="g4398"
     transform="translate(162.15168,167.56683)"
     inkscape:export-xdpi="90"
     inkscape:export-ydpi="90"><g
       style="fill:#ff0054;fill-opacity:1;stroke:none;stroke-opacity:1"
       transform="translate(2.1061995,89.507486)"
       id="g4302"><path
         inkscape:connector-curvature="0"
         style="fill:#ff0054;fill-opacity:1;stroke:none;stroke-opacity:1"
         d="m -31.005859,-71.714844 c 0.34907,1.499181 0.461404,3.045641 0.507812,4.669922 2.059105,0.0091 4.454982,-0.318624 6.783203,-0.77539 2.328221,-0.456767 4.58917,-1.042505 6.378906,-1.544922 0.522595,-0.698138 0.845374,-1.504177 1.09961,-2.34961 l -14.769531,0 z"
         id="path4300" /><path
         inkscape:connector-curvature="0"
         style="fill:#ff0054;fill-opacity:1;stroke:none;stroke-opacity:1"
         d="m -199.41211,-77.378906 c 0.25651,0.559166 0.71578,1.081645 1.33399,1.570312 0.6182,0.488668 1.39703,0.944047 2.28906,1.365235 1.78406,0.842375 4.02672,1.55201 6.3789,2.142578 2.35219,0.590567 4.81388,1.060918 7.03125,1.423828 2.21737,0.362909 4.19069,0.617942 5.57032,0.777344 0.1372,-1.645468 0.44474,-3.051838 0.91992,-4.253907 0.47518,-1.202069 1.11875,-2.199125 1.92383,-3.02539 l -25.44727,0 z"
         id="path4298" /><path
         inkscape:connector-curvature="0"
         style="fill:#ff0054;fill-opacity:1;stroke:none;stroke-opacity:1"
         d="m -157.60156,-77.386719 -0.15235,0.0039 -1.37109,0 c -1.6384,0.01816 -3.10109,0.06722 -4.39648,0.164062 -0.59372,0.480222 -1.13354,1.022993 -1.60938,1.619141 -0.47584,0.596148 -0.88702,1.245793 -1.22461,1.9375 -0.33759,0.691706 -0.60227,1.424507 -0.78125,2.191406 -0.17898,0.766899 -0.27344,1.566947 -0.27344,2.388672 0,1.443693 0.29321,2.819376 0.82227,4.070312 0.52906,1.250937 1.29429,2.376198 2.24023,3.322266 0.94595,0.946068 2.07162,1.713098 3.32227,2.242187 1.25065,0.52909 2.62712,0.820313 4.07031,0.820313 1.44319,0 2.81771,-0.291255 4.06836,-0.820313 1.25065,-0.529058 2.37632,-1.294292 3.32227,-2.240234 0.94594,-0.945942 1.71117,-2.073566 2.24023,-3.324219 0.52906,-1.250652 0.82227,-2.62517 0.82227,-4.068359 0,-1.517341 -0.31633,-2.956751 -0.89063,-4.253906 -0.5743,-1.297156 -1.40744,-2.452932 -2.4375,-3.404297 l -0.11523,-0.113281 c -2.14486,-0.34907 -4.68412,-0.523051 -7.65625,-0.535157 z"
         id="path4296" /><path
         inkscape:connector-curvature="0"
         style="fill:#ff0054;fill-opacity:1;stroke:none;stroke-opacity:1"
         d="m -50.494141,-79.390625 c -0.387406,0 -0.774897,0.0093 -1.15625,0.02539 -0.07869,0.02825 -0.165125,0.05209 -0.253906,0.07227 -1.174325,0.256253 -2.275355,0.709565 -3.265625,1.324219 -0.990269,0.614654 -1.870319,1.38915 -2.603516,2.289062 -0.733196,0.899913 -1.319549,1.925082 -1.722656,3.03711 -0.403107,1.112027 -0.623047,2.311501 -0.623047,3.5625 -5e-4,1.443189 0.291664,2.817707 0.820313,4.068359 0.528649,1.250653 1.294419,2.378277 2.240234,3.324219 0.945815,0.945942 2.071268,1.711176 3.322266,2.240234 1.250998,0.529058 2.628067,0.820313 4.072266,0.820313 1.443189,0 2.817706,-0.291255 4.068359,-0.820313 1.250652,-0.529058 2.376323,-1.294292 3.322265,-2.240234 0.945943,-0.945942 1.711177,-2.073566 2.240235,-3.324219 0.529058,-1.250652 0.822265,-2.62517 0.822265,-4.068359 0,-1.230318 -0.21242,-2.411013 -0.603515,-3.507813 -0.391095,-1.096799 -0.960431,-2.110425 -1.673828,-3.003906 -0.713398,-0.893481 -1.570202,-1.666748 -2.53711,-2.287109 -0.966907,-0.620361 -2.043686,-1.087795 -3.195312,-1.365235 -1.020977,-0.09685 -2.111219,-0.146484 -3.273438,-0.146484 z"
         id="path4294" /><path
         inkscape:connector-curvature="0"
         style="fill:#ff0054;fill-opacity:1;stroke:none;stroke-opacity:1"
         d="m -27.664062,-85.390625 c 0.34806,1.264115 1.16064,2.796836 2.052734,3.949219 0.446047,0.576191 0.911223,1.057374 1.349609,1.361328 0.438386,0.303954 0.850602,0.431934 1.185547,0.300781 0.251209,-0.132666 0.356948,-0.378026 0.359375,-0.691406 0.0024,-0.313381 -0.09891,-0.695803 -0.261719,-1.107422 -0.325613,-0.823238 -0.897546,-1.761079 -1.382812,-2.482422 -1.089581,-0.462062 -2.199029,-0.906352 -3.302734,-1.330078 z"
         id="path4292" /><path
         inkscape:connector-curvature="0"
         style="fill:#ff0054;fill-opacity:1;stroke:none;stroke-opacity:1"
         d="m -110.34375,-88.527344 c -3.64505,0.298626 -7.30152,0.57458 -10.95313,0.753906 -3.6516,0.179327 -7.29895,0.261536 -10.92382,0.175782 -0.0585,2.112575 0.0461,4.247951 0.375,6.339844 0.32889,2.091892 0.88125,4.140899 1.72265,6.083984 l 26.32032,0 0.002,-12.552734 c 0,-0.391442 -0.28941,-0.724108 -0.64453,-0.800782 l -1.8086,0 -4.08984,0 z"
         id="path4290" /><path
         inkscape:connector-curvature="0"
         style="fill:#ff0054;fill-opacity:1;stroke:none;stroke-opacity:1"
         d="m -159.8457,-89.974609 c -2.01346,0 -4.05379,0.119634 -6.08789,0.330078 -2.0341,0.210444 -4.06181,0.512812 -6.05079,0.878906 -3.97794,0.732188 -7.80033,1.720072 -11.20312,2.746094 -3.40279,1.026021 -6.38605,2.089202 -8.6875,2.970703 -2.30145,0.8815 -3.91983,1.582234 -4.59375,1.880859 l 38.43555,-0.0039 0.082,0 c 3.01299,0 5.8503,0.162508 8.41015,0.570313 1.27993,0.203902 2.49002,0.46839 3.61914,0.804687 1.12913,0.336297 2.17754,0.745388 3.13086,1.234375 0.95332,0.488987 1.81195,1.05873 2.56446,1.720703 0.7525,0.661973 1.39715,1.41623 1.92383,2.271485 0.52667,0.855254 0.93509,1.812028 1.21093,2.880859 0.27585,1.068831 0.41992,2.248077 0.41992,3.550781 l 0,1.154297 66.048833,0.01758 c -0.01412,-1.575855 -0.01112,-2.963243 0.335938,-4.416015 l -21.873047,0 0,-18.529297 -3.386719,0.21289 c -1.579891,0.100887 -3.167767,0.216698 -4.759765,0.341797 0.19169,0.504436 0.29492,1.051767 0.29492,1.63086 l -0.002,16.339843 -32.37891,0 c -0.71277,-1.208122 -1.30565,-2.484766 -1.79297,-3.808593 -0.48731,-1.323828 -0.86815,-2.693884 -1.15429,-4.087891 -0.28614,-1.394007 -0.47865,-2.811808 -0.58789,-4.230469 -0.10925,-1.418661 -0.13518,-2.838538 -0.0918,-4.236328 -2.10248,-0.1251 -4.19327,-0.315625 -6.26953,-0.583984 -2.59683,-0.335954 -4.7743,-0.746149 -7.40821,-1.072266 -2.6339,-0.326117 -5.72454,-0.568359 -10.14843,-0.568359 z"
         id="path4288" /><path
         inkscape:connector-curvature="0"
         style="fill:#ff0054;fill-opacity:1;stroke:none;stroke-opacity:1"
         d="m -159.8457,-89.974609 c 4.42389,0 7.51453,0.242242 10.14843,0.568359 2.63391,0.326117 4.81138,0.736312 7.40821,1.072266 2.07626,0.268359 4.16705,0.458884 6.26953,0.583984 -0.0434,1.39779 -0.0174,2.817667 0.0918,4.236328 0.10924,1.418661 0.30175,2.836462 0.58789,4.230469 0.28614,1.394007 0.66698,2.764063 1.15429,4.087891 0.48732,1.323827 1.0802,2.600471 1.79297,3.808593 l 32.37891,0 0.002,-16.339843 c 0,-0.579093 -0.10323,-1.126424 -0.29492,-1.63086 1.591998,-0.125099 3.179874,-0.24091 4.759765,-0.341797 l 3.386719,-0.21289 0,18.529297 21.873047,0 c -0.347055,1.452772 -0.350058,2.84016 -0.335938,4.416015 l -66.048833,-0.01758 0,-1.154297 c 0,-1.302704 -0.14407,-2.48195 -0.41992,-3.550781 -0.27584,-1.068831 -0.68426,-2.025605 -1.21093,-2.880859 -0.52668,-0.855255 -1.17133,-1.609512 -1.92383,-2.271485 -0.75251,-0.661973 -1.61114,-1.231716 -2.56446,-1.720703 -0.95332,-0.488987 -2.00173,-0.898078 -3.13086,-1.234375 -1.12912,-0.336297 -2.33921,-0.600785 -3.61914,-0.804687 -2.55985,-0.407805 -5.39716,-0.570313 -8.41015,-0.570313 l -0.082,0 -38.43555,0.0039 c 0.67392,-0.298625 2.2923,-0.999359 4.59375,-1.880859 2.30145,-0.881501 5.28471,-1.944682 8.6875,-2.970703 3.40279,-1.026022 7.22518,-2.013906 11.20312,-2.746094 1.98898,-0.366094 4.01669,-0.668462 6.05079,-0.878906 2.0341,-0.210444 4.07443,-0.330078 6.08789,-0.330078 z m 49.50195,1.447265 4.08984,0 1.8086,0 c 0.35512,0.07667 0.64453,0.40934 0.64453,0.800782 l -0.002,12.552734 -26.32032,0 c -0.8414,-1.943085 -1.39376,-3.992092 -1.72265,-6.083984 -0.32889,-2.091893 -0.43352,-4.227269 -0.375,-6.339844 3.62487,0.08575 7.27222,0.0035 10.92382,-0.175782 3.65161,-0.179326 7.30808,-0.45528 10.95313,-0.753906 z"
         id="path4286" /><path
         inkscape:connector-curvature="0"
         style="fill:#ff0054;fill-opacity:1;stroke:none;stroke-opacity:1"
         d="m -54.878906,-90.953125 c -5.644631,-0.266846 -11.32085,-0.154576 -17.03711,0.03711 -4.75178,0.159402 -10.198063,0.416168 -16.455078,0.777344 l 0,14.964844 19.798828,0 c 0.755509,-1.107285 1.695393,-2.117853 2.779297,-3.021484 1.084284,-0.903948 2.312758,-1.699187 3.646485,-2.371094 1.647485,-0.829292 3.478021,-1.483767 5.4375,-1.929688 1.959478,-0.445921 4.047789,-0.683594 6.214843,-0.683594 1.577874,0 3.064913,0.08662 4.460938,0.25586 1.396024,0.169238 2.700391,0.420034 3.914062,0.751953 1.998573,0.546808 3.75869,1.312987 5.263672,2.28125 1.504983,0.968263 2.755642,2.139163 3.738281,3.496094 0.213882,0.294591 0.410265,0.592128 0.589844,0.886719 l 17.433594,0 c 0.33898,-0.865612 0.796553,-2.04392 0.806641,-2.746094 -0.05246,-0.1251 -0.238701,-0.421734 -0.896485,-0.914063 -1.184414,-0.885788 -2.703083,-1.790122 -4.412109,-2.671875 0.145277,0.716298 0.197832,1.445553 0.119141,2.169922 -0.08374,0.768759 -0.359726,1.563261 -0.867188,2.1875 -0.253731,0.312119 -0.564279,0.5819 -0.939453,0.785156 -0.375174,0.203256 -0.815308,0.338862 -1.322266,0.384766 -0.508723,0.0459 -1.026374,-0.01209 -1.544922,-0.158203 -0.518547,-0.146117 -1.037759,-0.37871 -1.544921,-0.683594 -1.014325,-0.609767 -1.984648,-1.505465 -2.826172,-2.550781 -0.841524,-1.045316 -1.553691,-2.240241 -2.052735,-3.455078 -0.499044,-1.214838 -0.784599,-2.448073 -0.771484,-3.566406 -2.560513,-0.8757 -4.91397,-1.570545 -6.685547,-1.990235 -2.79558,-0.661819 -5.596484,-1.153442 -8.404297,-1.513672 -2.807813,-0.36023 -5.621044,-0.589233 -8.443359,-0.722656 z"
         id="path4284" /><path
         inkscape:connector-curvature="0"
         style="fill:#ff0054;fill-opacity:1;stroke:none;stroke-opacity:1"
         d="m -54.878906,-90.953125 c 2.822315,0.133423 5.635546,0.362426 8.443359,0.722656 2.807813,0.36023 5.608717,0.851853 8.404297,1.513672 1.771577,0.41969 4.125034,1.114535 6.685547,1.990235 -0.01311,1.118333 0.27244,2.351568 0.771484,3.566406 0.499044,1.214837 1.211211,2.409762 2.052735,3.455078 0.841524,1.045316 1.811847,1.941014 2.826172,2.550781 0.507162,0.304884 1.026374,0.537477 1.544921,0.683594 0.518548,0.146117 1.036199,0.204107 1.544922,0.158203 0.506958,-0.0459 0.947092,-0.18151 1.322266,-0.384766 0.375174,-0.203256 0.685722,-0.473037 0.939453,-0.785156 0.507462,-0.624239 0.783451,-1.418741 0.867188,-2.1875 0.07869,-0.724369 0.02614,-1.453624 -0.119141,-2.169922 1.709026,0.881753 3.227695,1.786087 4.412109,2.671875 0.657784,0.492329 0.844025,0.788963 0.896485,0.914063 -0.01009,0.702174 -0.467661,1.880482 -0.806641,2.746094 l -17.433594,0 c -0.179579,-0.294591 -0.375962,-0.592128 -0.589844,-0.886719 -0.982639,-1.356931 -2.233298,-2.527831 -3.738281,-3.496094 -1.504982,-0.968263 -3.265099,-1.734442 -5.263672,-2.28125 -1.213671,-0.331919 -2.518038,-0.582715 -3.914062,-0.751953 -1.396025,-0.169238 -2.883064,-0.25586 -4.460938,-0.25586 -2.167054,0 -4.255365,0.237673 -6.214843,0.683594 -1.959479,0.445921 -3.790015,1.100396 -5.4375,1.929688 -1.333727,0.671907 -2.562201,1.467146 -3.646485,2.371094 -1.083904,0.903631 -2.023788,1.914199 -2.779297,3.021484 0,0 0,0 0,0 l -19.798828,0 0,-14.964844 c 6.257015,-0.361176 11.703298,-0.617942 16.455078,-0.777344 5.71626,-0.191685 11.392479,-0.303955 17.03711,-0.03711 z m 27.214844,5.5625 c 1.103705,0.423726 2.213153,0.868016 3.302734,1.330078 0.485266,0.721343 1.057199,1.659184 1.382812,2.482422 0.162807,0.411619 0.264147,0.794041 0.261719,1.107422 -0.0024,0.31338 -0.108166,0.55874 -0.359375,0.691406 -0.334945,0.131153 -0.747161,0.0032 -1.185547,-0.300781 -0.438386,-0.303954 -0.903562,-0.785137 -1.349609,-1.361328 -0.892094,-1.152383 -1.704674,-2.685104 -2.052734,-3.949219 z m -22.830079,6 c 1.162219,0 2.252461,0.04963 3.273438,0.146484 1.151626,0.27744 2.228405,0.744874 3.195312,1.365235 0.966908,0.620361 1.823712,1.393628 2.53711,2.287109 0.713397,0.893481 1.282733,1.907107 1.673828,3.003906 0.391095,1.0968 0.603515,2.277495 0.603515,3.507813 0,1.443189 -0.293207,2.817707 -0.822265,4.068359 -0.529058,1.250653 -1.294292,2.378277 -2.240235,3.324219 -0.945942,0.945942 -2.071613,1.711176 -3.322265,2.240234 -1.250653,0.529058 -2.62517,0.820313 -4.068359,0.820313 -1.444199,0 -2.821268,-0.291255 -4.072266,-0.820313 -1.250998,-0.529058 -2.376451,-1.294292 -3.322266,-2.240234 -0.945815,-0.945942 -1.711585,-2.073566 -2.240234,-3.324219 -0.528649,-1.250652 -0.820813,-2.62517 -0.820313,-4.068359 0,-1.250999 0.21994,-2.450473 0.623047,-3.5625 0.403107,-1.112028 0.98946,-2.137197 1.722656,-3.03711 0.733197,-0.899912 1.613247,-1.674408 2.603516,-2.289062 0.99027,-0.614654 2.0913,-1.067966 3.265625,-1.324219 0.08878,-0.02018 0.175216,-0.04402 0.253906,-0.07227 0.381353,-0.01614 0.768844,-0.02539 1.15625,-0.02539 z"
         id="path4282" /><path
         inkscape:connector-curvature="0"
         style="fill:#ff0054;fill-opacity:1;stroke:none;stroke-opacity:1"
         d="m -140.13477,-101.30859 c -2.67653,0.41364 -7.55194,1.23809 -12.00585,2.494137 -2.22696,0.628022 -4.34956,1.362794 -6.03711,2.208984 -0.84378,0.423095 -1.57811,0.874933 -2.16407,1.353516 -0.58596,0.478583 -1.02336,0.98483 -1.26953,1.519531 0.59726,-0.02018 1.1866,-0.03125 1.76367,-0.03125 4.54597,0 7.72239,0.246459 10.42969,0.578125 2.70731,0.331666 4.94583,0.749661 7.61328,1.095703 1.66665,0.215898 3.34826,0.379066 5.03711,0.496094 l -2.26758,-6.537109 -1.09961,-3.177731 z"
         id="path4280" /><path
         inkscape:connector-curvature="0"
         style="fill:#ff0054;fill-opacity:1;stroke:none;stroke-opacity:1"
         d="m -140.13477,-101.30859 1.09961,3.177731 2.26758,6.537109 c -1.68885,-0.117028 -3.37046,-0.280196 -5.03711,-0.496094 -2.66745,-0.346042 -4.90597,-0.764037 -7.61328,-1.095703 -2.7073,-0.331666 -5.88372,-0.578125 -10.42969,-0.578125 -0.57707,0 -1.16641,0.01107 -1.76367,0.03125 0.24617,-0.534701 0.68357,-1.040948 1.26953,-1.519531 0.58596,-0.478583 1.32029,-0.930421 2.16407,-1.353516 1.68755,-0.84619 3.81015,-1.580962 6.03711,-2.208984 4.45391,-1.256047 9.32932,-2.080497 12.00585,-2.494137 z"
         id="path4278" /><path
         inkscape:connector-curvature="0"
         style="fill:#ff0054;fill-opacity:1;stroke:none;stroke-opacity:1"
         d="m -124.66992,-102.79297 c -3.0816,0.0189 -6.90896,0.29807 -11.64258,0.93164 l 0.86328,2.48633 2.76367,7.976562 c 3.20014,0.09282 6.42975,0.04793 9.66797,-0.08398 3.23822,-0.13191 6.48506,-0.350353 9.72656,-0.601562 l -2.16796,-5.195313 -2.04493,-4.892587 c -1.74938,-0.40052 -4.08442,-0.64001 -7.16601,-0.62109 z"
         id="path4276" /><path
         inkscape:connector-curvature="0"
         style="fill:#ff0054;fill-opacity:1;stroke:none;stroke-opacity:1"
         d="m -124.66992,-102.79297 c 3.08159,-0.0189 5.41663,0.22057 7.16601,0.62109 l 2.04493,4.892583 2.16796,5.195313 c -3.2415,0.251209 -6.48834,0.469652 -9.72656,0.601562 -3.23822,0.13191 -6.46783,0.176801 -9.66797,0.08398 l -2.76367,-7.976562 -0.86328,-2.486326 c 4.73362,-0.63357 8.56098,-0.91272 11.64258,-0.93164 z"
         id="path4274" /><path
         inkscape:connector-curvature="0"
         style="fill:#ff0054;fill-opacity:1;stroke:none;stroke-opacity:1"
         d="m -112.58594,-103.90039 c -0.39145,0.24213 -0.80889,0.49245 -1.22656,0.72851 l 4.49805,10.76563 c 2.86923,-0.240111 5.72574,-0.490875 8.55664,-0.714844 -5.08673,-4.550006 -9.73372,-8.793846 -11.82813,-10.779296 z"
         id="path4272" /><path
         inkscape:connector-curvature="0"
         style="fill:#ff0054;fill-opacity:1;stroke:none;stroke-opacity:1"
         d="m -112.58594,-103.90039 c 2.09441,1.98545 6.7414,6.22929 11.82813,10.779296 -2.8309,0.223969 -5.68741,0.474733 -8.55664,0.714844 l -4.49805,-10.76563 c 0.41767,-0.23606 0.83511,-0.48638 1.22656,-0.72851 z"
         id="path4270" /><path
         inkscape:connector-curvature="0"
         style="fill:#ff0054;fill-opacity:1;stroke:none;stroke-opacity:1"
         d="m -125.10547,-107.43945 c -3.6884,0.0544 -7.85953,0.45198 -12.00586,1.01757 -4.14633,0.5656 -8.26739,1.29841 -11.84961,2.02344 -3.58221,0.72503 -6.62699,1.44193 -8.62304,1.97461 -4.52478,1.20964 -8.62526,2.547388 -12.33008,3.957033 -3.70483,1.409645 -7.01328,2.891444 -9.95313,4.390625 -2.12165,1.082518 -4.03454,2.162398 -5.7539,3.220703 -1.71937,1.058306 -3.24577,2.096042 -4.59766,3.091797 3.90735,-1.386188 8.08284,-2.623456 12.27344,-3.609375 4.19059,-0.985919 8.3964,-1.721218 12.36328,-2.101562 0.14124,-1.132962 0.60085,-2.131234 1.24805,-3.003907 0.64719,-0.872673 1.48303,-1.619456 2.3789,-2.25 1.05932,-0.745303 2.41728,-1.447074 4.00196,-2.101564 1.58467,-0.65449 3.39494,-1.26235 5.35742,-1.8164 3.92494,-1.10812 8.459,-2.0056 13.00976,-2.6543 4.55076,-0.6487 9.11916,-1.04779 13.11524,-1.16016 1.99803,-0.0562 3.85221,-0.0415 5.49023,0.0508 1.63802,0.0923 3.05902,0.26127 4.18945,0.51172 l 0.78711,-0.49804 c -1.1042,-0.40431 -2.45801,-0.67914 -3.99609,-0.84571 -1.53808,-0.16657 -3.26127,-0.22446 -5.10547,-0.19726 z"
         id="path4268" /><path
         inkscape:connector-curvature="0"
         style="fill:#ff0054;fill-opacity:1;stroke:none;stroke-opacity:1"
         d="m -6.4941406,-73.611328 c 0,-0.473665 -0.1588329,-0.947486 -0.4746094,-1.302734 -0.3157765,-0.355249 -0.7903221,-0.591797 -1.421875,-0.591797 l -2.738281,0 c 0.344529,-1.122369 0.546353,-2.043562 0.568359,-2.839844 0.02201,-0.796283 -0.137486,-1.468124 -0.517578,-2.09375 -0.380092,-0.625626 -0.980032,-1.204055 -1.841797,-1.814453 -0.861764,-0.610398 -1.985191,-1.253307 -3.408203,-2.003906 -3.337344,-1.762497 -6.695455,-3.361174 -10.144531,-4.738282 -3.449076,-1.377108 -6.988101,-2.531559 -10.683594,-3.40625 -2.877299,-0.680987 -5.759694,-1.190414 -8.648438,-1.564453 -2.888743,-0.374039 -5.784096,-0.614113 -8.6875,-0.755859 -5.806806,-0.283493 -11.646508,-0.176254 -17.53125,0.02148 -6.464841,0.215899 -14.179263,0.611927 -23.46289,1.203125 -5.911982,-5.248144 -11.560042,-10.395099 -14.076172,-12.755859 0.12409,-0.34806 0.12677,-0.72269 0.0371,-1.07421 -0.0897,-0.35153 -0.27317,-0.68087 -0.52539,-0.94141 -0.25222,-0.26054 -0.57198,-0.45225 -0.93555,-0.52735 -0.36357,-0.0751 -0.76963,-0.0329 -1.19336,0.17188 -1.1095,-0.74102 -2.51154,-1.29966 -4.13281,-1.70312 -1.62127,-0.40347 -3.46336,-0.65335 -5.45508,-0.77735 -1.99171,-0.124 -4.13269,-0.12277 -6.35351,-0.0254 -2.22083,0.0974 -4.52147,0.29207 -6.83008,0.55274 -4.61722,0.52133 -9.26829,1.31076 -13.38867,2.13671 -4.12039,0.82595 -7.70826,1.68766 -10.20118,2.35352 -4.6519,1.24292 -8.87981,2.61987 -12.70898,4.07617 -3.82917,1.45631 -7.26028,2.992951 -10.32422,4.554685 -2.78952,1.423516 -5.30894,2.888951 -7.56055,4.353515 -2.2516,1.464565 -4.23483,2.927044 -5.95117,4.34375 -1.71634,1.416707 -3.16589,2.788418 -4.34961,4.06836 -1.18372,1.279941 -2.10211,2.469168 -2.75586,3.523437 l -2.4082,0 c -0.63206,0 -1.10585,0.236549 -1.42187,0.591797 -0.31603,0.355249 -0.47266,0.82907 -0.47266,1.302734 0,0.473665 0.15663,0.947486 0.47266,1.302735 0.31602,0.355248 0.78981,0.591797 1.42187,0.591797 l 1.25586,0 c 0.19194,1.056035 0.68601,2.016758 1.41406,2.890625 0.72805,0.873867 1.69016,1.661055 2.82031,2.36914 1.13016,0.708086 2.42792,1.337795 3.82618,1.896485 1.39825,0.558689 2.89734,1.046976 4.42968,1.472656 3.0647,0.851361 6.26352,1.4515 9.06055,1.869141 2.79703,0.417641 5.19112,0.652567 6.64844,0.767578 0.55689,0.04237 1.06768,-0.15062 1.43945,-0.494141 0.37177,-0.34352 0.60547,-0.83757 0.60547,-1.396484 0,-1.064358 0.0551,-2.014635 0.18164,-2.859375 0.12652,-0.84474 0.32424,-1.583971 0.60938,-2.232422 0.28513,-0.648452 0.65697,-1.206147 1.13281,-1.681641 0.47584,-0.475493 1.05526,-0.869447 1.7539,-1.195312 -0.56597,1.020977 -1.00958,2.119729 -1.3125,3.27539 -0.30291,1.155661 -0.46484,2.368141 -0.46484,3.619141 0,0.983144 0.0993,1.943973 0.28906,2.871094 0.18977,0.92712 0.46965,1.819884 0.83008,2.671875 0.36044,0.851991 0.80245,1.662165 1.31446,2.419922 0.512,0.757756 1.0938,1.463005 1.73828,2.107422 0.64448,0.644416 1.35152,1.228264 2.10937,1.740234 0.75786,0.51197 1.56779,0.952081 2.41992,1.3125 0.85214,0.360419 1.74652,0.640316 2.67383,0.830078 0.92731,0.189762 1.8877,0.291016 2.8711,0.291016 0.98339,0 1.94182,-0.101203 2.86914,-0.291016 0.92731,-0.189813 1.82169,-0.46958 2.67382,-0.830078 0.85214,-0.360498 1.66207,-0.800447 2.41993,-1.3125 0.75785,-0.512053 1.46489,-1.095755 2.10937,-1.740234 0.64448,-0.64448 1.22628,-1.349646 1.73828,-2.107422 0.51201,-0.757776 0.95402,-1.567978 1.31446,-2.419922 0.36043,-0.851944 0.64031,-1.746846 0.83007,-2.673828 0.18977,-0.926983 0.28907,-1.886249 0.28907,-2.869141 0,-1.024003 -0.10626,-2.023549 -0.31055,-2.988281 -0.2043,-0.964733 -0.50706,-1.893638 -0.89649,-2.775391 0.59524,0.374796 1.10909,0.791716 1.54493,1.255859 0.43583,0.464144 0.79463,0.974606 1.07812,1.53125 0.56699,1.113289 0.83594,2.413808 0.83594,3.916016 0,1.041155 0.007,2.030823 -0.0293,2.958984 -0.0242,0.619446 0.17541,1.089077 0.49219,1.417969 0.31679,0.340998 0.78094,0.56836 1.40039,0.56836 l 69.634766,0.01758 0.242187,0 c 0.502418,0 0.97496,-0.221056 1.322266,-0.56836 0.347306,-0.347303 0.569312,-0.820792 0.570312,-1.324218 0.003,-1.152131 -0.0701,-2.331042 -0.01563,-3.490235 0.05448,-1.159192 0.236292,-2.299608 0.75586,-3.373047 0.39245,-0.81214 0.943747,-1.59952 1.640625,-2.341797 0.696877,-0.742276 1.540862,-1.438888 2.521484,-2.066406 -0.630544,1.06335 -1.128069,2.215383 -1.466797,3.433594 -0.338728,1.218211 -0.519531,2.502469 -0.519531,3.828125 0,0.983144 0.0993,1.943973 0.289062,2.871094 0.189767,0.92712 0.469644,1.819884 0.830079,2.671875 0.360434,0.851991 0.802447,1.662165 1.314453,2.419922 0.512005,0.757756 1.093802,1.463005 1.738281,2.107422 0.644479,0.644416 1.35152,1.228264 2.109375,1.740234 0.757855,0.51197 1.567789,0.952081 2.419922,1.3125 0.852133,0.360419 1.746514,0.640316 2.673828,0.830078 0.927313,0.189762 1.887697,0.291016 2.871094,0.291016 0.983396,0 1.943835,-0.101203 2.871093,-0.291016 0.927259,-0.189813 1.819837,-0.46958 2.671875,-0.830078 0.852039,-0.360498 1.662186,-0.800447 2.419922,-1.3125 0.757737,-0.512053 1.463069,-1.095755 2.107422,-1.740234 0.644353,-0.64448 1.228347,-1.349646 1.740235,-2.107422 0.511887,-0.757776 0.952159,-1.567978 1.3125,-2.419922 0.36034,-0.851944 0.640367,-1.746846 0.830078,-2.673828 0.189711,-0.926983 0.289062,-1.886249 0.289062,-2.869141 0,-0.987684 -0.100087,-1.951437 -0.291016,-2.880859 -0.190928,-0.929422 -0.471799,-1.82423 -0.833984,-2.677735 0.127118,0.15133 0.246317,0.307395 0.361328,0.466797 0.471143,0.650217 0.824133,1.321965 1.089844,2.013672 0.265711,0.691707 0.443893,1.403089 0.564453,2.126953 0.24112,1.447729 0.251243,2.950336 0.273438,4.470703 0.002,0.102905 0.0093,0.203998 0.02344,0.298828 0.0061,0.39346 0.112971,0.776836 0.34375,1.097657 0.230779,0.32082 0.584529,0.577637 1.085938,0.714843 0,0 1.16814,0.316751 4.029296,0.123047 1.302452,-0.08878 2.961805,-0.282082 5.03125,-0.660156 2.069446,-0.378074 4.550127,-0.939425 7.498047,-1.763672 0.559923,-0.147295 1.042476,-0.451602 1.462891,-0.859375 0.420415,-0.407773 0.777854,-0.920604 1.085938,-1.486328 0.616167,-1.131448 1.035333,-2.474952 1.365234,-3.623047 l 3.939453,0 c 0.6315529,0 1.1060985,-0.236548 1.421875,-0.591797 0.3157765,-0.355248 0.4746094,-0.829069 0.4746094,-1.302734 z M -125.10547,-107.43945 c 1.8442,-0.0272 3.56739,0.0307 5.10547,0.19726 1.53808,0.16657 2.89189,0.4414 3.99609,0.84571 l -0.78711,0.49804 c -1.13043,-0.25045 -2.55143,-0.41939 -4.18945,-0.51172 -1.63802,-0.0923 -3.4922,-0.10696 -5.49023,-0.0508 -3.99608,0.11237 -8.56448,0.51146 -13.11524,1.16016 -4.55076,0.6487 -9.08482,1.54618 -13.00976,2.6543 -1.96248,0.55405 -3.77275,1.16191 -5.35742,1.8164 -1.58468,0.65449 -2.94264,1.356261 -4.00196,2.101564 -0.89587,0.630544 -1.73171,1.377327 -2.3789,2.25 -0.6472,0.872673 -1.10681,1.870945 -1.24805,3.003907 -3.96688,0.380344 -8.17269,1.115643 -12.36328,2.101562 -4.1906,0.985919 -8.36609,2.223187 -12.27344,3.609375 1.35189,-0.995755 2.87829,-2.033491 4.59766,-3.091797 1.71936,-1.058305 3.63225,-2.138185 5.7539,-3.220703 2.93985,-1.499181 6.2483,-2.98098 9.95313,-4.390625 3.70482,-1.409645 7.8053,-2.747393 12.33008,-3.957033 1.99605,-0.53268 5.04083,-1.24958 8.62304,-1.97461 3.58222,-0.72503 7.70328,-1.45784 11.84961,-2.02344 4.14633,-0.56559 8.31746,-0.96319 12.00586,-1.01757 z m -32.49609,30.052731 c 2.97213,0.01211 5.51139,0.186087 7.65625,0.535157 l 0.11523,0.113281 c 1.03006,0.951365 1.8632,2.107141 2.4375,3.404297 0.5743,1.297155 0.89063,2.736565 0.89063,4.253906 0,1.443189 -0.29321,2.817707 -0.82227,4.068359 -0.52906,1.250653 -1.29429,2.378277 -2.24023,3.324219 -0.94595,0.945942 -2.07162,1.711176 -3.32227,2.240234 -1.25065,0.529058 -2.62517,0.820313 -4.06836,0.820313 -1.44319,0 -2.81966,-0.291223 -4.07031,-0.820313 -1.25065,-0.529089 -2.37632,-1.296119 -3.32227,-2.242187 -0.94594,-0.946068 -1.71117,-2.071329 -2.24023,-3.322266 -0.52906,-1.250936 -0.82227,-2.626619 -0.82227,-4.070312 0,-0.821725 0.0945,-1.621773 0.27344,-2.388672 0.17898,-0.766899 0.44366,-1.4997 0.78125,-2.191406 0.33759,-0.691707 0.74877,-1.341352 1.22461,-1.9375 0.47584,-0.596148 1.01566,-1.138919 1.60938,-1.619141 1.29539,-0.09685 2.75808,-0.145903 4.39648,-0.164062 l 1.37109,0 0.15235,-0.0039 z m -41.81055,0.0078 25.44727,0 c -0.80508,0.826265 -1.44865,1.823321 -1.92383,3.02539 -0.47518,1.202069 -0.78272,2.608439 -0.91992,4.253907 -1.37963,-0.159402 -3.35295,-0.414435 -5.57032,-0.777344 -2.21737,-0.36291 -4.67906,-0.833261 -7.03125,-1.423828 -2.35218,-0.590568 -4.59484,-1.300203 -6.3789,-2.142578 -0.89203,-0.421188 -1.67086,-0.876567 -2.28906,-1.365235 -0.61821,-0.488667 -1.07748,-1.011146 -1.33399,-1.570312 z m 168.406251,5.664062 14.769531,0 c -0.254236,0.845433 -0.577015,1.651472 -1.09961,2.34961 -1.789736,0.502417 -4.050685,1.088155 -6.378906,1.544922 -2.328221,0.456766 -4.724098,0.78447 -6.783203,0.77539 -0.04641,-1.624281 -0.158742,-3.170741 -0.507812,-4.669922 z"
         id="path4266" /></g><path
       style="fill:#c5283d;fill-opacity:1"
       inkscape:connector-curvature="0"
       d="m -202.4918,8.3391255 2.40717,0 c 2.61499,-4.2170783 9.45917,-10.5951583 20.61727,-16.2892236 6.12788,-3.1234629 13.72871,-6.1440209 23.03252,-8.6298779 9.97167,-2.663418 37.48559,-8.466441 46.36163,-2.538318 1.6949,-0.819203 3.11338,0.978604 2.61701,2.370845 2.51613,2.360757 8.165816,7.5080149 14.077798,12.7561592 9.283627,-0.591198 16.997451,-0.986675 23.462293,-1.202574 11.769483,-0.395477 23.357369,-0.425743 34.866564,2.298207 7.390985,1.749382 14.154453,4.620627 20.82914,8.145621 5.6920481,3.0023983 6.5758186,4.2614693 5.1977011,8.7509428 l 2.7400927,0 c 2.5262117,0 2.5262117,3.789318 0,3.789318 l -3.9406488,0 c -0.659801,2.296189 -1.674725,5.379297 -3.914417,5.968478 -5.89584,1.648494 -9.923251,2.247762 -12.528154,2.425323 -2.861157,0.193704 -4.029429,-0.123082 -4.029429,-0.123082 -1.002817,-0.274413 -1.418472,-1.027029 -1.430578,-1.813948 -0.01412,-0.09483 -0.02018,-0.195721 -0.0222,-0.298626 -0.04439,-3.040735 -0.04439,-6.01085 -1.92896,-8.611718 -0.115011,-0.159402 -0.234058,-0.314768 -0.361176,-0.466098 0.724369,1.707009 1.1259,3.583508 1.1259,5.558876 0,7.863136 -6.376062,14.243233 -14.243234,14.243233 -7.867172,0 -14.245251,-6.378079 -14.245251,-14.243233 0,-2.651311 0.724369,-5.135151 1.985457,-7.26185 -1.961244,1.255035 -3.375681,2.784483 -4.160582,4.408764 -1.039136,2.146877 -0.734458,4.558077 -0.740511,6.862338 -0.002,1.006852 -0.887806,1.89264 -1.892641,1.89264 l -0.242129,0 -69.636285,-0.01816 c -0.61945,0 -1.08353,-0.225987 -1.40032,-0.566985 -0.31678,-0.328891 -0.51654,-0.799025 -0.49233,-1.418471 0.0363,-0.928161 0.0303,-1.916854 0.0303,-2.958009 0,-3.004416 -1.07747,-5.205771 -3.45841,-6.704953 0.77885,1.763506 1.20661,3.716679 1.20661,5.764686 0,7.863136 -6.37808,14.243233 -14.24525,14.243233 -7.86717,0 -14.24525,-6.378079 -14.24525,-14.243233 0,-2.501999 0.64568,-4.852667 1.77763,-6.894621 -2.79457,1.303461 -3.67834,3.710626 -3.67834,7.968059 0,1.117829 -0.93018,1.975369 -2.04397,1.890624 -5.82926,-0.460045 -26.66445,-2.816767 -28.19995,-11.265048 l -1.25504,0 c -2.52823,0 -2.52823,-3.7893185 0,-3.7893185 z m 47.01538,-21.2548835 c -9.04956,2.419271 -16.40423,5.3490309 -22.28393,8.3473942 -4.24331,2.165036 -7.64723,4.31998404 -10.35101,6.311494 7.81471,-2.772376 16.70286,-4.949519 24.63662,-5.710207 0.28248,-2.265923 1.83413,-3.9931103 3.62588,-5.2541983 8.47451,-5.9624239 36.1216,-9.1726499 45.16511,-7.1690329 l 0.78692,-0.498382 c -8.83367,-3.234439 -33.59538,1.842197 -41.57959,3.972932 z m -4.02741,8.6904102 c 0.59726,-0.02018 1.18644,-0.03027 1.76351,-0.03027 9.09194,0 12.70773,0.980622 18.04264,1.672707 1.66665,0.215898 3.34743,0.379336 5.03628,0.496364 l -2.26592,-6.5374803 -1.09967,-3.1779419 c -5.35307,0.827273 -19.50752,3.2990059 -21.47684,7.5766172 z m 44.10782,-8.4381932 c -3.49876,-0.801043 -9.34214,-0.958427 -18.80938,0.308715 l 0.86359,2.4878739 2.76431,7.9761303 c 6.40027,0.185633 12.91152,-0.183614 19.39453,-0.686032 l -2.16908,-5.1956833 -2.04397,-4.8910039 z m -12.61895,26.997376 26.31941,0 0.002,-12.5523678 c 0,-0.391442 -0.28854,-0.724369 -0.64366,-0.80104296 l -1.80991,0 -4.08996,0 c -7.2901,0.59725096 -14.62661,1.10168596 -21.87635,0.93017796 -0.11703,4.2251503 0.41565,8.5370628 2.09845,12.4232328 z m 17.53619,-28.72658 c -0.39145,0.242129 -0.80912,0.492329 -1.22679,0.728405 l 4.49754,10.7646482 c 2.86923,-0.240111 5.72635,-0.490311 8.557266,-0.71428 -5.086746,-4.5500063 -9.733606,-8.7933162 -11.828016,-10.7787732 z m 88.223721,19.8404472 c -1.089581,-0.462062 -2.19732,-0.907983 -3.301025,-1.331709 0.696121,2.5282303 3.246546,6.1359518 4.586326,5.6113383 1.004835,-0.530666 -0.314768,-2.836944 -1.285301,-4.2796293 z M -28.391,22.463313 c 4.11821,0.01816 9.582252,-1.315567 13.161725,-2.320402 0.522595,-0.698138 0.845433,-1.505235 1.099669,-2.350668 l -14.769865,0 c 0.34907,1.499181 0.462063,3.046789 0.508471,4.67107 z m -19.166521,8.418014 c 5.772757,0 10.453916,-4.681159 10.453916,-10.453915 0,-4.92127 -3.403929,-9.053603 -8.010432,-10.163361 -1.020977,-0.09685 -2.110557,-0.147295 -3.272776,-0.147295 -0.387406,0 -0.774813,0.01009 -1.156166,0.02623 -0.07869,0.02825 -0.165454,0.05044 -0.254235,0.07062 -4.697301,1.025012 -8.214223,5.209807 -8.214223,10.213804 -0.002,5.772756 4.677123,10.453915 10.453916,10.453915 z M -66.465772,14.335852 c 1.511288,-2.215479 3.759051,-4.051624 6.426505,-5.3954395 3.294971,-1.658583 7.318346,-2.612975 11.652454,-2.612975 3.155747,0 5.9483,0.345034 8.375643,1.008871 3.997145,1.093616 7.035863,3.0629315 9.001142,5.7767925 0.213881,0.294591 0.409602,0.591198 0.589181,0.885789 l 17.433282,0 c 0.33898,-0.865611 0.797008,-2.043972 0.807096,-2.746146 -0.05246,-0.1251 -0.238093,-0.421708 -0.895877,-0.914037 -1.184414,-0.8857885 -2.703773,-1.7897365 -4.412799,-2.6714895 0.145277,0.716298 0.197738,1.446721 0.119046,2.17109 -0.167472,1.5375185 -1.099668,3.1739065 -3.127498,3.3575215 -4.069784,0.367229 -8.793315,-5.9422475 -8.740854,-10.4155798 -2.560513,-0.8757 -4.913199,-1.569803 -6.684776,-1.98949296 -11.18232,-2.64727604 -22.453422,-2.58270804 -33.885942,-2.19933804 -4.75178,0.159402 -10.197663,0.41565504 -16.454678,0.77683104 l 0,14.96558576 19.798075,0 z M -154.8489,30.881327 c 5.77276,0 10.45392,-4.681159 10.45392,-10.453915 0,-3.034682 -1.26714,-5.754597 -3.32726,-7.657327 l -0.11501,-0.115011 c -2.14486,-0.349069 -4.68519,-0.522595 -7.65732,-0.534701 l -0.15134,0.004 -1.37206,0 c -1.6384,0.01816 -3.10127,0.06659 -4.39666,0.163437 -2.37488,1.92089 -3.88818,4.85065 -3.88818,8.13755 0,5.774773 4.68116,10.455932 10.45391,10.455932 z m -1.07747,-22.5462365 0.0827,0 c 12.05196,0 21.27909,2.6129745 21.27909,13.0346065 l 0,1.154148 66.048753,0.01614 c -0.01412,-1.575855 -0.01211,-2.962044 0.334945,-4.414817 l -21.872312,0 0,-18.52891676 -3.38577,0.211863 c -1.579891,0.100887 -3.167853,0.215899 -4.759851,0.340998 0.191686,0.504436 0.29459,1.05326096 0.29459,1.63235296 l -0.002,16.3396668 -32.378705,0 c -2.85107,-4.832489 -3.80142,-10.7727195 -3.6279,-16.3638798 -2.10248,-0.1251 -4.19286,-0.314768 -6.26912,-0.583127 -5.19366,-0.67190796 -8.70857,-1.64042396 -17.55636,-1.64042396 -16.10763,0 -33.92832,7.61092026 -36.62402,8.80542226 l 38.43595,-0.004 z m -18.77508,11.0733625 c 0.27441,-3.290935 1.23284,-5.627479 2.843,-7.280009 l -25.44574,0 c 2.05205,4.473332 17.08422,6.642403 22.60274,7.280009 z"
       id="path4143" /></g><g
     id="g4379"
     transform="translate(163.70278,177.5803)"
     inkscape:export-xdpi="90"
     inkscape:export-ydpi="90"><g
       transform="translate(-2.7557655,-109.18929)"
       style="fill:#3da5d9;fill-opacity:1;stroke:none"
       id="g4362"><path
         inkscape:connector-curvature="0"
         style="fill:#3da5d9;fill-opacity:1;stroke:none"
         d="m -21.519531,214.1543 c 0.06844,0.58576 0.129006,1.1756 0.191406,1.77343 l 0.02344,0.21094 c 1.449285,-0.25161 2.680804,-0.55422 3.728516,-0.89062 1.047712,-0.33641 1.910483,-0.70627 2.623047,-1.09375 l -6.566406,0 z"
         id="path4360" /><path
         inkscape:connector-curvature="0"
         style="fill:#3da5d9;fill-opacity:1;stroke:none"
         d="m -59.664062,214.1543 -66.646488,0.002 c 0.18921,1.22988 0.38884,2.49802 0.64649,3.81445 0.22444,0.59381 0.61059,0.9594 1.0957,1.17578 0.48511,0.21639 1.07048,0.28321 1.68945,0.28321 l 57.923832,0.008 c 0.957635,0 1.756166,-0.0708 2.417969,-0.24414 0.661802,-0.1733 1.186774,-0.44873 1.597656,-0.85156 0.410882,-0.40283 0.707234,-0.93445 0.912109,-1.62305 0.204875,-0.6886 0.319501,-1.53385 0.363282,-2.56445 z"
         id="path4358" /><path
         inkscape:connector-curvature="0"
         style="fill:#3da5d9;fill-opacity:1;stroke:none"
         d="m -40.583984,202.5625 c -1.462369,5e-4 -2.856056,0.2979 -4.123047,0.83398 -1.266992,0.53609 -2.407097,1.31127 -3.365235,2.26954 -0.958138,0.95826 -1.733723,2.09821 -2.269531,3.36523 -0.535807,1.26702 -0.832031,2.66068 -0.832031,4.12305 0,1.46236 0.296224,2.85586 0.832031,4.12304 0.535808,1.26718 1.311393,2.4088 2.269531,3.36719 0.958138,0.95839 2.098243,1.73354 3.365235,2.26953 1.266991,0.536 2.660678,0.83203 4.123047,0.83203 1.462368,0 2.855866,-0.29619 4.123046,-0.83203 1.267181,-0.53584 2.406845,-1.31126 3.365235,-2.26953 0.95839,-0.95826 1.735488,-2.09991 2.271484,-3.36719 0.535996,-1.26727 0.832032,-2.66017 0.832031,-4.12304 0,-1.46288 -0.296192,-2.85578 -0.832031,-4.12305 -0.535839,-1.26727 -1.311267,-2.40892 -2.269531,-3.36719 -0.958264,-0.95826 -2.099913,-1.73369 -3.367188,-2.26953 -1.267274,-0.53584 -2.660175,-0.83203 -4.123046,-0.83203 z"
         id="path4356" /><path
         inkscape:connector-curvature="0"
         style="fill:#3da5d9;fill-opacity:1;stroke:none"
         d="m -145.57227,202.5625 c -1.46186,5e-4 -2.85633,0.2979 -4.12304,0.83398 -1.26671,0.53609 -2.40722,1.31127 -3.36524,2.26954 -0.95801,0.95826 -1.7318,2.09821 -2.26757,3.36523 -0.53578,1.26702 -0.83204,2.66068 -0.83204,4.12305 0,1.46236 0.29626,2.85586 0.83204,4.12304 0.53577,1.26718 1.30956,2.4088 2.26757,3.36719 0.95802,0.95839 2.09853,1.73354 3.36524,2.26953 1.26671,0.536 2.66118,0.83203 4.12304,0.83203 1.46237,0 2.85392,-0.29619 4.1211,-0.83203 1.26718,-0.53584 2.4088,-1.31126 3.36719,-2.26953 0.95838,-0.95826 1.73353,-2.09991 2.26953,-3.36719 0.53599,-1.26727 0.83398,-2.66017 0.83398,-4.12304 0,-1.46288 -0.29619,-2.85578 -0.83203,-4.12305 -0.53584,-1.26727 -1.31127,-2.40892 -2.26953,-3.36719 -0.95826,-0.95826 -2.09991,-1.73369 -3.36719,-2.26953 -1.26727,-0.53584 -2.66018,-0.83203 -4.12305,-0.83203 z"
         id="path4354" /><path
         inkscape:connector-curvature="0"
         style="fill:#3da5d9;fill-opacity:1;stroke:none"
         d="m -93,193.25781 c -6.519771,0.2355 -13.04231,0.4779 -19.57617,0.76172 -6.19971,0.26772 -9.24618,0.39879 -12.59766,0.38672 l -0.93945,-0.002 c 0.13285,0.52134 0.25659,1.00442 0.36328,1.44726 0.21488,0.89071 0.52573,1.65994 0.90625,2.32422 0.38052,0.66429 0.83003,1.22272 1.32227,1.69336 0.98446,0.94128 2.13837,1.52925 3.24609,1.89258 1.10772,0.36333 2.16922,0.50323 2.96875,0.55078 0.79953,0.0476 1.33855,0.002 1.39844,-0.004 l 15.29687,-0.34179 c 0.56512,0 1.639606,-0.008 2.886721,-0.10938 1.247114,-0.10143 2.667781,-0.2964 3.923828,-0.66992 0.628023,-0.18676 1.214692,-0.4183 1.71875,-0.70508 0.504057,-0.28678 0.924744,-0.62898 1.220703,-1.03711 0.295959,-0.40813 0.466976,-0.88278 0.470703,-1.43359 0.0037,-0.55081 -0.160566,-1.17775 -0.533203,-1.89258 L -93,193.25781 Z"
         id="path4352" /><path
         inkscape:connector-curvature="0"
         style="fill:#3da5d9;fill-opacity:1;stroke:none"
         d="m -55.261719,192.08789 c -4.151419,0.006 -8.718253,0.0977 -13.742187,0.29492 -6.455355,0.25765 -12.911594,0.4814 -19.375,0.71289 0,0 0.834703,1.20451 1.007812,1.55274 0.549269,1.1008 0.858749,2.10067 0.966797,3.00781 0.108048,0.90714 0.01624,1.72167 -0.240234,2.45117 -0.256471,0.7295 -0.676416,1.37353 -1.220703,1.94141 -0.544288,0.56787 -1.213349,1.0582 -1.96875,1.48047 -1.510804,0.84453 -3.366673,1.41523 -5.261719,1.77343 -1.895046,0.3582 -3.830424,0.50391 -5.496097,0.50391 l -15.0957,0.33789 c -1.55295,0.12228 -3.09222,0.008 -4.55273,-0.33789 -1.46052,-0.34553 -2.84303,-0.92196 -4.08008,-1.7168 -1.23705,-0.79484 -2.32838,-1.80949 -3.21094,-3.03515 -0.88256,-1.22567 -1.55608,-2.66084 -1.95313,-4.29883 -0.16706,-0.71257 -0.37782,-1.53346 -0.61132,-2.44531 -2.39132,-0.0765 -5.35209,-0.19799 -9.47852,-0.3711 l -0.11914,-0.004 c -4.92958,-0.19928 -11.05162,-0.16103 -17.29687,0.19726 -3.12263,0.17915 -6.27573,0.438 -9.32618,0.78711 -3.05044,0.34911 -5.99812,0.78867 -8.70898,1.32813 -1.53282,0.30445 -3.09625,0.64929 -4.63477,1.08398 -1.53851,0.43469 -3.05257,0.95967 -4.48437,1.62305 -1.4318,0.66337 -2.78147,1.46458 -3.99414,2.45508 -1.21268,0.9905 -2.28878,2.16986 -3.16992,3.58593 -0.97324,1.57006 -1.24142,2.87854 -1.81836,3.82813 -0.28848,0.47479 -0.65386,0.86008 -1.22266,1.14258 -0.5688,0.28249 -1.3413,0.46388 -2.44336,0.52929 0.0443,0.4207 0.14957,0.80205 0.30859,1.1543 l 14.875,0 c 0.6401,0 1.11941,0.23955 1.43946,0.59961 0.32005,0.36006 0.48047,0.84024 0.48047,1.32031 0,0.48008 -0.16042,0.96026 -0.48047,1.32031 -0.32005,0.36006 -0.79936,0.59961 -1.43946,0.59961 l -9.88671,0 c 1.70743,0.69244 3.70447,1.24106 5.8164,1.67383 2.11194,0.43277 4.33918,0.75094 6.51172,0.98242 4.34509,0.46297 8.46802,0.5818 10.99219,0.58985 1.68681,0.0161 2.46391,-0.21609 2.82422,-0.4375 0.25815,-0.15701 0.43811,-0.51006 0.56445,-0.96485 0.12634,-0.45478 0.1989,-1.0106 0.23828,-1.57421 0.0788,-1.12723 0.0274,-2.28414 0.0274,-2.71289 0.0131,-2.08939 0.36323,-4.09968 0.99804,-5.98047 0.63482,-1.8808 1.5556,-3.63219 2.70899,-5.19922 -5.12483,0.53543 -10.21671,1.29752 -15.21875,2.13086 -0.63105,0.10517 -1.14281,-0.0531 -1.51758,-0.35547 -0.37478,-0.30241 -0.6124,-0.74925 -0.69141,-1.22266 -0.079,-0.47341 -4e-4,-0.97303 0.25586,-1.38086 0.25627,-0.40783 0.69122,-0.7244 1.32227,-0.83008 3.78827,-0.63154 7.62639,-1.21971 11.49023,-1.70117 3.86385,-0.48146 7.75273,-0.85618 11.64453,-1.0625 3.89181,-0.20632 7.78606,-0.24269 11.65821,-0.0488 3.87215,0.19387 7.72247,0.61879 11.52734,1.3379 0.51631,0.0976 0.89743,0.33259 1.1543,0.64257 0.25686,0.30999 0.39009,0.69393 0.41211,1.08594 0.022,0.39201 -0.0676,0.79302 -0.25586,1.13672 -0.18824,0.3437 -0.47572,0.62986 -0.84961,0.79492 0.84441,1.25604 1.45569,2.53734 1.91992,3.85352 0.46422,1.31618 0.78136,2.66839 1.04101,4.06836 l 67.492192,0 c 0.156503,-1.04168 0.396995,-2.05554 0.714844,-3.03516 0.317849,-0.97962 0.713007,-1.92496 1.177735,-2.82813 0.929454,-1.80632 2.138197,-3.44531 3.568359,-4.85937 -4.359931,0.13486 -8.710184,0.414 -12.986328,0.76953 -4.276145,0.35553 -8.477927,0.78669 -12.542969,1.22852 -0.636075,0.0694 -1.139025,-0.11623 -1.496094,-0.43946 -0.357068,-0.32322 -0.567182,-0.78453 -0.61914,-1.26172 -0.05196,-0.47718 0.05473,-0.97086 0.333984,-1.36328 0.279258,-0.39242 0.73061,-0.68301 1.367188,-0.75195 3.926655,-0.42774 7.915581,-0.84618 11.939453,-1.19922 4.023871,-0.35304 8.082515,-0.64089 12.148437,-0.80859 4.065923,-0.1677 8.138599,-0.21423 12.191407,-0.0859 4.052807,0.12829 8.085786,0.43187 12.070312,0.9668 l 0.238281,0.0312 c 4.057997,0.55355 8.066922,1.35421 11.996094,2.44922 0.616449,0.1721 1.013193,0.53229 1.224609,0.96484 0.211417,0.43255 0.236499,0.93635 0.107422,1.39844 -0.129077,0.46208 -0.411374,0.88187 -0.816406,1.14258 -0.405032,0.2607 -0.932379,0.363 -1.548828,0.1914 -1.71096,-0.47706 -3.449535,-0.89158 -5.214844,-1.2539 0.953106,1.29227 1.675294,2.66836 2.234375,4.12695 0.559082,1.45859 0.954872,2.99983 1.257813,4.61719 l 10.439453,0 c 0.03623,-0.14694 0.06184,-0.29294 0.08398,-0.42579 l 0.851563,-7.37109 c -0.0081,-0.63406 -0.111213,-1.13867 -0.509766,-1.5332 0.04831,2.13166 -0.0059,3.75195 -0.0059,3.75195 -0.02114,0.6401 -0.276081,1.11211 -0.646485,1.41992 -0.370404,0.30782 -0.856239,0.45178 -1.335937,0.43555 -0.479698,-0.0162 -0.953717,-0.19336 -1.302735,-0.52539 -0.349017,-0.33203 -0.572419,-0.81939 -0.550781,-1.45898 0,0 0.05435,-1.65421 0,-3.76172 0,-0.40257 0.02497,-2.80595 -0.355469,-3.35547 -0.362322,-0.27376 -0.425323,-0.31574 -0.572265,-0.4043 -0.449882,-0.26721 -1.477969,-0.7938 -3.392578,-1.4082 -1.91461,-0.61441 -4.716234,-1.31766 -8.71875,-1.9375 -4.002516,-0.61985 -9.204366,-1.15592 -15.917969,-1.43946 -3.356802,-0.14176 -7.092721,-0.22123 -11.244141,-0.21484 z"
         id="path4350" /><path
         inkscape:connector-curvature="0"
         style="fill:#3da5d9;fill-opacity:1;stroke:none"
         d="m -133.59961,180.93945 c -1.89615,0.46196 -3.67359,1.01518 -5.29297,1.63867 -1.61937,0.6235 -3.08148,1.31673 -4.34961,2.0625 -1.562,0.91587 -2.72693,1.84716 -3.54492,2.75196 -0.81799,0.90479 -1.28871,1.78451 -1.46484,2.5957 3.14012,-0.0403 6.09003,0.003 8.71484,0.10938 2.70734,0.11071 5.56966,0.24902 8.41992,0.34765 -0.75282,-2.84221 -1.62493,-6.12017 -2.48242,-9.50586 z"
         id="path4348" /><path
         inkscape:connector-curvature="0"
         style="fill:#3da5d9;fill-opacity:1;stroke:none"
         d="m -133.59961,180.93945 c 0.85749,3.38569 1.7296,6.66365 2.48242,9.50586 -2.85026,-0.0986 -5.71258,-0.23694 -8.41992,-0.34765 -2.62481,-0.10671 -5.57472,-0.14968 -8.71484,-0.10938 0.17613,-0.81119 0.64685,-1.69091 1.46484,-2.5957 0.81799,-0.9048 1.98292,-1.83609 3.54492,-2.75196 1.26813,-0.74577 2.73024,-1.439 4.34961,-2.0625 1.61938,-0.62349 3.39682,-1.17671 5.29297,-1.63867 z"
         id="path4346" /><path
         inkscape:connector-curvature="0"
         style="fill:#3da5d9;fill-opacity:1;stroke:none"
         d="m -116.74805,179.24805 c -2.18902,0.0443 -4.38071,0.10392 -6.56445,0.23828 -2.18374,0.13435 -4.35963,0.34507 -6.52148,0.69531 0.95009,3.74197 1.91572,7.34181 2.71484,10.36719 0.66023,0.0101 1.31297,0.0195 1.95508,0.0215 3.30719,0.0101 6.3093,-0.12498 12.46875,-0.38867 5.66027,-0.24356 11.32204,-0.46076 16.986326,-0.66406 -1.62038,-2.24036 -5.556636,-7.73633 -5.556636,-7.73633 -0.35478,-0.43529 -0.83948,-0.82416 -1.53321,-1.16016 -0.69372,-0.33599 -1.59597,-0.61855 -2.7832,-0.83984 -1.18723,-0.22129 -2.66081,-0.38148 -4.49609,-0.47266 -1.83529,-0.0912 -4.03203,-0.11489 -6.66993,-0.0605 z"
         id="path4344" /><path
         inkscape:connector-curvature="0"
         style="fill:#3da5d9;fill-opacity:1;stroke:none"
         d="m -116.74805,179.24805 c 2.6379,-0.0543 4.83464,-0.0306 6.66993,0.0605 1.83528,0.0912 3.30886,0.25137 4.49609,0.47266 1.18723,0.22129 2.08948,0.50385 2.7832,0.83984 0.69373,0.336 1.17843,0.72487 1.53321,1.16016 0,0 3.936256,5.49597 5.556636,7.73633 -5.664286,0.2033 -11.326056,0.4205 -16.986326,0.66406 -6.15945,0.26369 -9.16156,0.39877 -12.46875,0.38867 -0.64211,-0.002 -1.29485,-0.0114 -1.95508,-0.0215 -0.79912,-3.02538 -1.76475,-6.62522 -2.71484,-10.36719 2.16185,-0.35024 4.33774,-0.56096 6.52148,-0.69531 2.18374,-0.13436 4.37543,-0.19398 6.56445,-0.23828 z"
         id="path4342" /><path
         inkscape:connector-curvature="0"
         style="fill:#3da5d9;fill-opacity:1;stroke:none"
         d="m -99.925781,176.09766 c 0,0 -0.01944,0.0659 -0.02344,0.14648 -0.0282,0.43479 0.133092,0.95389 0.583985,1.58594 2.69325,3.79632 5.900353,8.24663 8.269531,11.51758 l 5.173828,-0.1836 c -5.944121,-5.38248 -13.39202,-12.09478 -13.476563,-12.1914 -0.20935,-0.23752 -0.388453,-0.58715 -0.527343,-0.875 z"
         id="path4340" /><path
         inkscape:connector-curvature="0"
         style="fill:#3da5d9;fill-opacity:1;stroke:none"
         d="m -99.925781,176.09766 c 0.13889,0.28785 0.317993,0.63748 0.527343,0.875 0.08454,0.0966 7.532442,6.80892 13.476563,12.1914 l -5.173828,0.1836 c -2.369178,-3.27095 -5.576281,-7.72126 -8.269531,-11.51758 -0.450893,-0.63205 -0.612185,-1.15115 -0.583985,-1.58594 0.004,-0.0805 0.02344,-0.14648 0.02344,-0.14648 z"
         id="path4338" /><path
         inkscape:connector-curvature="0"
         style="fill:#3da5d9;fill-opacity:1;stroke:none"
         d="m -134.90625,175.60547 c -2.24337,0.3744 -4.25029,0.8166 -6.07813,1.32812 -1.82783,0.51153 -3.47662,1.09158 -5.0039,1.74024 -1.52729,0.64865 -2.93367,1.36656 -4.27539,2.15234 -1.34172,0.78579 -2.61948,1.63959 -3.89063,2.5625 -2.32389,1.69385 -3.9541,3.1356 -5.38476,4.35742 -1.43067,1.22183 -2.66078,2.22467 -4.18555,3.04493 3.85671,-0.36635 7.79792,-0.59603 11.57813,-0.7168 0.08,-0.90631 0.32413,-1.77072 0.70507,-2.5918 0.38094,-0.82107 0.89711,-1.59864 1.51758,-2.33008 0.62048,-0.73143 1.34592,-1.41729 2.14453,-2.05468 0.79862,-0.6374 1.67058,-1.22668 2.58594,-1.76563 1.46136,-0.86051 3.11276,-1.64136 4.90625,-2.33203 1.79349,-0.69067 3.73065,-1.28999 5.76367,-1.78516 l -0.38281,-1.60937 z"
         id="path4336" /><path
         inkscape:connector-curvature="0"
         style="fill:#3da5d9;fill-opacity:1;stroke:none"
         d="m -117.06641,174.13281 c -5.02217,0.0898 -10.13866,0.47264 -14.01953,0.9336 l 0.33008,1.37695 c 2.29973,-0.38446 4.61557,-0.61787 6.93945,-0.76758 2.32389,-0.14971 4.65635,-0.21637 6.98829,-0.26367 2.77376,-0.0574 5.23206,-0.0459 7.39843,0.0762 2.16638,0.12204 4.04032,0.35567 5.64258,0.74414 0.008,-0.43076 0.0631,-0.86062 0.17383,-1.2793 -1.75223,-0.35376 -3.86036,-0.58119 -6.1582,-0.70898 -2.29785,-0.12779 -4.78384,-0.15624 -7.29493,-0.11133 z"
         id="path4334" /><path
         inkscape:connector-curvature="0"
         style="fill:#3da5d9;fill-opacity:1;stroke:none"
         d="m -3.5273438,212.23633 c 0,-0.47957 -0.158717,-0.95868 -0.4785156,-1.31836 -0.3197986,-0.35968 -0.7998559,-0.59961 -1.4394531,-0.59961 l -2.3007813,0 0.8769532,-7.58008 0,-0.11133 c 0,-0.69646 -0.082222,-1.36513 -0.2597656,-1.99023 -0.1775437,-0.6251 -0.449012,-1.20724 -0.8300782,-1.73047 -0.3810662,-0.52323 -0.8718541,-0.98806 -1.4824218,-1.37891 -0.6105678,-0.39084 -1.3409828,-0.70758 -2.2070318,-0.93554 -0.154992,-0.47807 -0.367399,-0.92908 -0.65625,-1.33594 -0.28885,-0.40686 -0.654222,-0.76844 -1.117187,-1.06836 -0.104671,-0.0785 -0.21345,-0.14868 -0.326172,-0.20508 -0.08454,-0.0704 -0.180545,-0.13296 -0.283203,-0.19336 -0.699984,-0.41616 -1.972734,-1.05117 -4.119141,-1.74414 -2.146406,-0.69297 -5.164939,-1.44396 -9.357421,-2.09375 -4.192483,-0.64979 -9.558271,-1.19971 -16.396485,-1.48633 -3.419107,-0.1433 -7.207416,-0.22037 -11.400391,-0.21289 -4.192974,0.007 -8.790232,0.10056 -13.832031,0.29883 -3.760088,0.14694 -7.521162,0.28706 -11.28125,0.41992 -6.590219,-5.97629 -14.445247,-13.06911 -16.091797,-14.55664 -0.26671,-0.47806 -0.72441,-0.98414 -1.46289,-1.46875 -0.73848,-0.4846 -1.757584,-0.94833 -3.146484,-1.33984 -1.94697,-0.54852 -4.43404,-0.90169 -7.20117,-1.10547 -2.76713,-0.20378 -5.81309,-0.25854 -8.88086,-0.20508 -3.06778,0.0535 -6.15696,0.21429 -9.00586,0.4375 -2.84891,0.22321 -5.45784,0.509 -7.56836,0.81446 -2.65904,0.38446 -5.03459,0.85598 -7.19336,1.4121 -2.15877,0.55613 -4.10029,1.19838 -5.89453,1.92579 -1.79425,0.72741 -3.44039,1.53918 -5.00586,2.4375 -1.56547,0.89831 -3.05101,1.88232 -4.52344,2.95117 -3.56786,2.60066 -5.36882,4.57494 -7.44336,6.04687 -1.03727,0.73597 -2.1432,1.34802 -3.57226,1.84766 -1.42906,0.49964 -3.18079,0.88776 -5.51172,1.18164 -2.69527,0.34018 -5.24543,0.67576 -7.73438,1.25195 -1.24447,0.2881 -2.47424,0.63717 -3.69922,1.07617 -1.22497,0.439 -2.44501,0.96797 -3.67187,1.61915 -1.08143,0.57367 -2.31128,1.4 -3.56836,2.4121 -1.25708,1.01211 -2.54167,2.21041 -3.73242,3.52735 -1.19075,1.31694 -2.28749,2.75207 -3.16992,4.24023 -0.88244,1.48816 -1.55069,3.02892 -1.88282,4.55469 l -0.0605,0.29492 c -0.2174,1.12923 -0.24266,2.24531 -0.0293,3.32422 l -1.13867,0 c -0.6396,0 -1.11969,0.24138 -1.43946,0.60156 -0.31976,0.36018 -0.48059,0.84024 -0.48046,1.32032 1.2e-4,0.48007 0.16038,0.95867 0.48046,1.31835 0.32009,0.35969 0.80131,0.59866 1.44141,0.59766 l 3.14453,0 c 0.73471,0.7873 1.63725,1.4897 2.66797,2.11328 1.03072,0.62358 2.19057,1.16978 3.44141,1.64844 2.50168,0.95732 5.36804,1.64242 8.29492,2.13281 2.92687,0.49039 5.91517,0.78519 8.66016,0.95899 2.74499,0.1738 5.24709,0.22682 7.20312,0.23437 0.94103,0.007 1.82338,-0.0441 2.63281,-0.19531 0.80944,-0.15122 1.54527,-0.40246 2.19141,-0.79297 l 0.0117,-0.01 c 0.72363,-0.44082 1.25377,-1.01321 1.64062,-1.66796 0.38686,-0.65476 0.63117,-1.39231 0.78516,-2.16602 0.30797,-1.54741 0.25391,-3.2381 0.25391,-4.69141 0.009,-1.17502 0.15153,-2.3182 0.41211,-3.41601 0.26057,-1.09782 0.63932,-2.14865 1.12304,-3.14063 0.48373,-0.99198 1.0715,-1.92372 1.75,-2.78125 0.67851,-0.85752 1.44806,-1.64149 2.29297,-2.33593 l 1.29883,-0.0781 c -0.937,0.65168 -1.79192,1.41178 -2.54883,2.26172 -0.75691,0.84994 -1.41436,1.7888 -1.95508,2.80078 -0.54071,1.01198 -0.96549,2.09659 -1.2539,3.23438 -0.28841,1.13778 -0.44141,2.32927 -0.44141,3.55664 0,0.99613 0.10073,1.96891 0.29297,2.9082 0.19224,0.93929 0.47668,1.84588 0.8418,2.70898 0.36512,0.86311 0.81143,1.68163 1.33007,2.44922 0.51865,0.7676 1.10892,1.48398 1.76172,2.13672 0.65281,0.65275 1.36911,1.24316 2.13672,1.76172 0.76761,0.51856 1.58616,0.96504 2.44922,1.33008 0.86306,0.36504 1.76984,0.64765 2.70898,0.83984 0.93915,0.19219 1.91233,0.29297 2.90821,0.29297 0.99663,0 1.96847,-0.10078 2.9082,-0.29297 0.93973,-0.19219 1.84745,-0.4748 2.71094,-0.83984 0.86348,-0.36504 1.68326,-0.81152 2.45117,-1.33008 0.76791,-0.51856 1.48372,-1.10897 2.13672,-1.76172 0.65299,-0.65274 1.24297,-1.36912 1.76172,-2.13672 0.51875,-0.76759 0.96491,-1.58611 1.33008,-2.44922 0.36516,-0.8631 0.64954,-1.76969 0.84179,-2.70898 0.19225,-0.93929 0.29297,-1.91207 0.29297,-2.9082 0,-1.17503 -0.14074,-2.31643 -0.40625,-3.41016 -0.26551,-1.09372 -0.65535,-2.14044 -1.1543,-3.12109 -0.49894,-0.98066 -1.10634,-1.8966 -1.80664,-2.73243 -0.70029,-0.83582 -1.49371,-1.59077 -2.36328,-2.25 0.46296,0.0483 0.93163,0.10562 1.39258,0.16602 1.34864,1.22233 2.32166,2.48588 3.04102,3.79297 0.71935,1.30709 1.18577,2.65931 1.52343,4.05664 0.67533,2.79465 0.83469,5.77447 1.46875,8.96289 0.1243,0.76943 0.3551,1.4452 0.69336,2.02539 0.33826,0.58019 0.78314,1.06426 1.33203,1.45313 0.5489,0.38886 1.2028,0.68148 1.95899,0.87695 0.75619,0.19547 1.61602,0.29492 2.57617,0.29492 l 57.927735,0.008 c 1.740148,0 3.18285,-0.23961 4.367187,-0.69922 1.184338,-0.4596 2.111271,-1.13882 2.820313,-2.01757 0.709042,-0.87876 1.199409,-1.95738 1.513672,-3.21485 0.314263,-1.25746 0.451172,-2.69529 0.451172,-4.29101 0.01057,-1.4825 0.234775,-2.91356 0.640625,-4.26758 0.40585,-1.35402 0.994516,-2.62952 1.738281,-3.79688 0.743765,-1.16735 1.641704,-2.22788 2.666016,-3.15039 1.024312,-0.9225 2.174383,-1.7067 3.421875,-2.32617 0.654191,0.006 1.306746,0.0133 1.960937,0.0254 -1.403994,0.49467 -2.708024,1.20019 -3.875,2.07813 -1.166976,0.87793 -2.19681,1.92794 -3.050781,3.11328 -0.853971,1.18534 -1.533068,2.50498 -1.998047,3.92187 -0.464979,1.41689 -0.716797,2.93133 -0.716797,4.50391 0,0.99613 0.100781,1.96892 0.292969,2.9082 0.192188,0.93929 0.476755,1.84588 0.841797,2.70899 0.365041,0.86311 0.811518,1.68162 1.330078,2.44922 0.51856,0.76759 1.108975,1.48397 1.761719,2.13672 0.652744,0.65274 1.367172,1.24315 2.134765,1.76171 0.767593,0.51856 1.588065,0.96504 2.451172,1.33008 0.863108,0.36504 1.769698,0.64766 2.708984,0.83985 0.939287,0.19218 1.912072,0.29296 2.908204,0.29296 0.996383,0 1.968723,-0.10078 2.908203,-0.29296 0.939479,-0.19219 1.845735,-0.47481 2.708984,-0.83985 0.863249,-0.36504 1.683481,-0.81152 2.451172,-1.33008 0.767691,-0.51856 1.481959,-1.10897 2.134766,-1.76171 0.652807,-0.65275 1.243123,-1.36913 1.761718,-2.13672 0.518596,-0.7676 0.966974,-1.58611 1.332032,-2.44922 0.365057,-0.86311 0.647651,-1.7697 0.839843,-2.70899 0.192193,-0.93928 0.292969,-1.91207 0.292969,-2.9082 0,-1.41356 -0.203292,-2.77961 -0.582031,-4.07031 -0.378739,-1.29071 -0.932517,-2.50626 -1.634766,-3.61914 -0.702249,-1.11288 -1.552907,-2.12383 -2.523437,-3.00391 -0.97053,-0.88007 -2.060559,-1.62841 -3.244141,-2.2207 0.615946,0.0664 1.226031,0.14029 1.835938,0.21679 1.479478,0.99286 2.624456,2.08197 3.521484,3.25586 0.897028,1.1739 1.545573,2.43253 2.029297,3.76758 0.483724,1.33505 0.803403,2.74633 1.042969,4.22266 0.239566,1.47633 0.397945,3.0175 0.5625,4.61523 0.08052,0.78604 0.236043,1.8334 0.648437,2.64258 0.206197,0.40459 0.476221,0.74986 0.833985,0.97266 0.357763,0.2228 0.804313,0.32427 1.359374,0.24023 l -0.09766,0.0215 c 1.857399,-0.25061 3.4921,-0.58221 4.927735,-0.98243 1.435634,-0.40022 2.672261,-0.86865 3.736328,-1.39062 1.064066,-0.52197 1.95457,-1.09899 2.697265,-1.71484 0.742696,-0.61586 1.3370734,-1.27126 1.8085941,-1.95313 l 3.7871094,-0.002 c 0.6395973,0 1.1196545,-0.23993 1.4394531,-0.59961 0.3197987,-0.35968 0.4785156,-0.83879 0.4785156,-1.31836 z M -117.06641,174.13281 c 2.51109,-0.0449 4.99708,-0.0165 7.29493,0.11133 2.29784,0.12779 4.40597,0.35522 6.1582,0.70898 -0.11073,0.41868 -0.16583,0.84854 -0.17383,1.2793 -1.60226,-0.38847 -3.4762,-0.6221 -5.64258,-0.74414 -2.16637,-0.12204 -4.62467,-0.13354 -7.39843,-0.0762 -2.33194,0.0473 -4.6644,0.11396 -6.98829,0.26367 -2.32388,0.14971 -4.63972,0.38312 -6.93945,0.76758 l -0.33008,-1.37695 c 3.88087,-0.46096 8.99736,-0.84377 14.01953,-0.9336 z m -17.83984,1.47266 0.38281,1.60937 c -2.03302,0.49517 -3.97018,1.09449 -5.76367,1.78516 -1.79349,0.69067 -3.44489,1.47152 -4.90625,2.33203 -0.91536,0.53895 -1.78732,1.12823 -2.58594,1.76563 -0.79861,0.63739 -1.52405,1.32325 -2.14453,2.05468 -0.62047,0.73144 -1.13664,1.50901 -1.51758,2.33008 -0.38094,0.82108 -0.62506,1.68549 -0.70507,2.5918 -3.78021,0.12077 -7.72142,0.35045 -11.57813,0.7168 1.52477,-0.82026 2.75488,-1.8231 4.18555,-3.04493 1.43066,-1.22182 3.06087,-2.66357 5.38476,-4.35742 1.27115,-0.92291 2.54891,-1.77671 3.89063,-2.5625 1.34172,-0.78578 2.7481,-1.50369 4.27539,-2.15234 1.52728,-0.64866 3.17607,-1.22871 5.0039,-1.74024 1.82784,-0.51152 3.83476,-0.95372 6.07813,-1.32812 z m 79.644531,16.48242 c 4.15142,-0.006 7.887339,0.0731 11.244141,0.21484 6.713603,0.28354 11.915453,0.81961 15.917969,1.43946 4.002516,0.61984 6.80414,1.32309 8.71875,1.9375 1.914609,0.6144 2.942696,1.14099 3.392578,1.4082 0.146942,0.0886 0.209943,0.13054 0.572265,0.4043 0.380439,0.54952 0.355469,2.9529 0.355469,3.35547 0.05435,2.10751 0,3.76172 0,3.76172 -0.02164,0.63959 0.201764,1.12695 0.550781,1.45898 0.349018,0.33203 0.823037,0.50916 1.302735,0.52539 0.479698,0.0162 0.965533,-0.12773 1.335937,-0.43555 0.370404,-0.30781 0.62535,-0.77982 0.646485,-1.41992 0,0 0.05417,-1.62029 0.0059,-3.75195 0.398553,0.39453 0.501666,0.89914 0.509766,1.5332 l -0.851563,7.37109 c -0.02214,0.13285 -0.04775,0.27885 -0.08398,0.42579 l -10.439453,0 c -0.302941,-1.61736 -0.698731,-3.1586 -1.257813,-4.61719 -0.559081,-1.45859 -1.281269,-2.83468 -2.234375,-4.12695 1.765309,0.36232 3.503884,0.77684 5.214844,1.2539 0.616449,0.1716 1.143796,0.0693 1.548828,-0.1914 0.405032,-0.26071 0.687329,-0.6805 0.816406,-1.14258 0.129077,-0.46209 0.103995,-0.96589 -0.107422,-1.39844 -0.211416,-0.43255 -0.60816,-0.79274 -1.224609,-0.96484 -3.929172,-1.09501 -7.938097,-1.89567 -11.996094,-2.44922 l -0.238281,-0.0312 c -3.984526,-0.53493 -8.017505,-0.83851 -12.070312,-0.9668 -4.052808,-0.12829 -8.125484,-0.0818 -12.191407,0.0859 -4.065922,0.1677 -8.124566,0.45555 -12.148437,0.80859 -4.023872,0.35304 -8.012798,0.77148 -11.939453,1.19922 -0.636578,0.0689 -1.08793,0.35953 -1.367188,0.75195 -0.279258,0.39242 -0.385942,0.8861 -0.333984,1.36328 0.05196,0.47719 0.262072,0.9385 0.61914,1.26172 0.357069,0.32323 0.860019,0.5089 1.496094,0.43946 4.065042,-0.44183 8.266824,-0.87299 12.542969,-1.22852 4.276144,-0.35553 8.626397,-0.63467 12.986328,-0.76953 -1.430162,1.41406 -2.638905,3.05305 -3.568359,4.85937 -0.464728,0.90317 -0.859886,1.84851 -1.177735,2.82813 -0.317849,0.97962 -0.558341,1.99348 -0.714844,3.03516 l -67.492197,0 c -0.25964,-1.39997 -0.57679,-2.75218 -1.04101,-4.06836 -0.46422,-1.31618 -1.0755,-2.59748 -1.91991,-3.85352 0.37388,-0.16506 0.66137,-0.45122 0.84961,-0.79492 0.18823,-0.3437 0.27787,-0.74471 0.25586,-1.13672 -0.022,-0.39201 -0.15525,-0.77595 -0.41211,-1.08594 -0.25687,-0.30998 -0.63799,-0.54495 -1.1543,-0.64257 -3.80487,-0.71911 -7.65519,-1.14403 -11.52734,-1.3379 -3.87216,-0.19386 -7.76641,-0.15749 -11.65821,0.0488 -3.8918,0.20632 -7.78068,0.58104 -11.64453,1.0625 -3.86385,0.48146 -7.70196,1.06963 -11.49023,1.70117 -0.63105,0.10568 -1.066,0.42225 -1.32227,0.83008 -0.25626,0.40783 -0.33486,0.90745 -0.25587,1.38086 0.079,0.47341 0.31663,0.92025 0.69141,1.22266 0.37477,0.3024 0.88653,0.46064 1.51758,0.35547 5.00204,-0.83334 10.09392,-1.59543 15.21875,-2.13086 -1.15339,1.56703 -2.07417,3.31842 -2.70899,5.19922 -0.6348,1.88079 -0.98494,3.89108 -0.99804,5.98047 0,0.42875 0.0514,1.58566 -0.0274,2.71289 -0.0394,0.56361 -0.11194,1.11943 -0.23828,1.57421 -0.12634,0.45479 -0.3063,0.80784 -0.56445,0.96485 -0.36031,0.22141 -1.1374,0.4536 -2.82422,0.4375 -2.52417,-0.008 -6.6471,-0.12688 -10.99219,-0.58985 -2.17253,-0.23148 -4.39977,-0.54965 -6.51171,-0.98242 -2.11193,-0.43277 -4.10897,-0.98139 -5.8164,-1.67383 l 9.88671,0 c 0.64009,0 1.1194,-0.23955 1.43946,-0.59961 0.32005,-0.36005 0.48047,-0.84023 0.48047,-1.32031 0,-0.48007 -0.16042,-0.96025 -0.48047,-1.32031 -0.32006,-0.36006 -0.79937,-0.59961 -1.43946,-0.59961 l -14.875,0 c -0.15902,-0.35225 -0.26429,-0.7336 -0.3086,-1.1543 1.10206,-0.0654 1.87457,-0.2468 2.44337,-0.52929 0.5688,-0.2825 0.93418,-0.66779 1.22266,-1.14258 0.57694,-0.94959 0.84512,-2.25807 1.81836,-3.82813 0.88114,-1.41607 1.95724,-2.59543 3.16992,-3.58593 1.21267,-0.9905 2.56234,-1.79171 3.99413,-2.45508 1.43181,-0.66338 2.94587,-1.18836 4.48438,-1.62305 1.53852,-0.43469 3.10194,-0.77953 4.63477,-1.08398 2.71086,-0.53946 5.65853,-0.97902 8.70898,-1.32813 3.05045,-0.34911 6.20355,-0.60796 9.32617,-0.78711 6.24525,-0.35829 12.36729,-0.39654 17.29687,-0.19726 l 0.11914,0.004 c 4.12643,0.17311 7.0872,0.2946 9.47852,0.3711 0.2335,0.91185 0.44426,1.73274 0.61132,2.44531 0.39705,1.63799 1.07057,3.07316 1.95313,4.29883 0.88256,1.22566 1.97389,2.24031 3.21094,3.03515 1.23705,0.79484 2.61956,1.37127 4.08008,1.7168 1.46051,0.34553 2.99978,0.46017 4.55273,0.33789 l 15.0957,-0.33789 c 1.665678,0 3.601056,-0.14571 5.496102,-0.50391 1.895046,-0.3582 3.750915,-0.9289 5.261719,-1.77343 0.755401,-0.42227 1.424462,-0.9126 1.96875,-1.48047 0.544287,-0.56788 0.964232,-1.21191 1.220703,-1.94141 0.256471,-0.7295 0.348282,-1.54403 0.240234,-2.45117 -0.108048,-0.90714 -0.417528,-1.90701 -0.966797,-3.00781 -0.173109,-0.34823 -1.007812,-1.55274 -1.007812,-1.55274 6.463406,-0.23149 12.919645,-0.45524 19.375,-0.71289 5.023934,-0.19726 9.590768,-0.28853 13.742187,-0.29492 z M -93,193.25781 l 2.076172,2.86133 c 0.372637,0.71483 0.53693,1.34177 0.533203,1.89258 -0.0037,0.55081 -0.174744,1.02546 -0.470703,1.43359 -0.295959,0.40813 -0.716646,0.75033 -1.220703,1.03711 -0.504058,0.28678 -1.090727,0.51832 -1.71875,0.70508 -1.256047,0.37352 -2.676714,0.56849 -3.923828,0.66992 -1.247115,0.10143 -2.321601,0.10938 -2.886721,0.10938 l -15.29687,0.34179 c -0.0599,0.006 -0.59891,0.0515 -1.39844,0.004 -0.79953,-0.0476 -1.86103,-0.18745 -2.96875,-0.55078 -1.10772,-0.36333 -2.26163,-0.9513 -3.24609,-1.89258 -0.49224,-0.47064 -0.94175,-1.02907 -1.32227,-1.69336 -0.38052,-0.66428 -0.69137,-1.43351 -0.90625,-2.32422 -0.10669,-0.44284 -0.23043,-0.92592 -0.36328,-1.44726 l 0.93945,0.002 c 3.35148,0.0121 6.39795,-0.119 12.59766,-0.38672 6.53386,-0.28382 13.056399,-0.52622 19.57617,-0.76172 z m -52.57227,9.30469 c 1.46287,0 2.85578,0.29619 4.12305,0.83203 1.26728,0.53584 2.40893,1.31127 3.36719,2.26953 0.95826,0.95827 1.73369,2.09992 2.26953,3.36719 0.53584,1.26727 0.83203,2.66017 0.83203,4.12305 0,1.46287 -0.29799,2.85577 -0.83398,4.12304 -0.536,1.26728 -1.31115,2.40893 -2.26953,3.36719 -0.95839,0.95827 -2.10001,1.73369 -3.36719,2.26953 -1.26718,0.53584 -2.65873,0.83203 -4.1211,0.83203 -1.46186,0 -2.85633,-0.29603 -4.12304,-0.83203 -1.26671,-0.53599 -2.40722,-1.31114 -3.36524,-2.26953 -0.95801,-0.95839 -1.7318,-2.10001 -2.26757,-3.36719 -0.53578,-1.26718 -0.83204,-2.66068 -0.83204,-4.12304 0,-1.46237 0.29626,-2.85603 0.83204,-4.12305 0.53577,-1.26702 1.30956,-2.40697 2.26757,-3.36523 0.95802,-0.95827 2.09853,-1.73345 3.36524,-2.26954 1.26671,-0.53608 2.66118,-0.83348 4.12304,-0.83398 z m 104.988286,0 c 1.462871,0 2.855772,0.29619 4.123046,0.83203 1.267275,0.53584 2.408924,1.31127 3.367188,2.26953 0.958264,0.95827 1.733692,2.09992 2.269531,3.36719 0.535839,1.26727 0.832031,2.66017 0.832031,4.12305 10e-7,1.46287 -0.296035,2.85577 -0.832031,4.12304 -0.535996,1.26728 -1.313094,2.40893 -2.271484,3.36719 -0.95839,0.95827 -2.098054,1.73369 -3.365235,2.26953 -1.26718,0.53584 -2.660678,0.83203 -4.123046,0.83203 -1.462369,0 -2.856056,-0.29603 -4.123047,-0.83203 -1.266992,-0.53599 -2.407097,-1.31114 -3.365235,-2.26953 -0.958138,-0.95839 -1.733723,-2.10001 -2.269531,-3.36719 -0.535807,-1.26718 -0.832031,-2.66068 -0.832031,-4.12304 0,-1.46237 0.296224,-2.85603 0.832031,-4.12305 0.535808,-1.26702 1.311393,-2.40697 2.269531,-3.36523 0.958138,-0.95827 2.098243,-1.73345 3.365235,-2.26954 1.266991,-0.53608 2.660678,-0.83348 4.123047,-0.83398 z m -19.080078,11.5918 c -0.04378,1.0306 -0.158407,1.87585 -0.363282,2.56445 -0.204875,0.6886 -0.501227,1.22022 -0.912109,1.62305 -0.410882,0.40283 -0.935854,0.67826 -1.597656,0.85156 -0.661803,0.1733 -1.460334,0.24414 -2.417969,0.24414 l -57.923832,-0.008 c -0.61897,0 -1.20434,-0.0668 -1.68945,-0.28321 -0.48511,-0.21638 -0.87126,-0.58197 -1.0957,-1.17578 -0.25765,-1.31643 -0.45728,-2.58457 -0.64649,-3.81445 l 66.646488,-0.002 z m 38.144531,0 6.566406,0 c -0.712564,0.38748 -1.575335,0.75734 -2.623047,1.09375 -1.047712,0.3364 -2.279231,0.63901 -3.728516,0.89062 l -0.02344,-0.21094 c -0.0624,-0.59783 -0.122966,-1.18767 -0.191406,-1.77343 z"
         id="path4332" /></g><path
       style="fill:#255f85;fill-opacity:1"
       inkscape:connector-curvature="0"
       id="path4140"
       d="m -204.36456,102.46052 1.13929,0 c -0.21336,-1.07891 -0.1872,-2.19607 0.0302,-3.325303 l 0.0604,-0.29388 c 1.32852,-6.10309 8.02743,-12.43969 12.35314,-14.73439 4.90744,-2.60468 9.71423,-3.26693 15.10477,-3.94729 9.32373,-1.17553 9.39216,-3.87482 16.52788,-9.07614 5.88973,-4.27539 11.98075,-7.18804 22.61689,-8.7259 8.44208,-1.22182 24.86931,-2.13568 32.6572,0.0584 2.77779,0.78302 4.076105,1.85187 4.609525,2.80799 1.64655,1.48753 9.500866,8.58097 16.091085,14.55726 3.760088,-0.13286 7.520176,-0.27376 11.280264,-0.4207 40.334393,-1.58616 52.307092,3.57289 55.107029,5.23755 0.102658,0.0604 0.197264,0.1248 0.281806,0.19525 0.112722,0.0564 0.221418,0.1248 0.326089,0.20331 0.925931,0.59984 1.463374,1.44928 1.77336,2.40541 3.464192,0.91184 4.7806252,3.24881 4.7806252,6.03466 l 0,0.1107 -0.8776222,7.580563 2.3007439,0 c 2.558389,0 2.558389,3.83658 0,3.83658 l -3.7862609,0.002 c -1.886082,2.72747 -5.740776,5.03828 -13.170371,6.0407 l 0.09662,-0.0221 c -2.220244,0.33617 -2.679184,-2.28261 -2.840216,-3.85468 -0.658217,-6.39094 -1.239943,-11.890173 -7.157855,-15.861613 -0.609907,-0.0765 -1.219814,-0.15097 -1.83576,-0.21739 4.734329,2.36918 7.985155,7.26051 7.985155,12.914733 0,7.96906 -6.459381,14.42844 -14.430445,14.42844 -7.969052,0 -14.428432,-6.45938 -14.428432,-14.42844 0,-6.290303 4.023777,-11.638563 9.639755,-13.617233 -0.654191,-0.0121 -1.306369,-0.0201 -1.96056,-0.0262 -4.989967,2.47787 -8.423966,7.61276 -8.466237,13.542753 0,6.38289 -2.192042,10.22149 -9.152636,10.22149 l -57.929102,-0.008 c -3.8406,0 -6.06284,-1.57207 -6.56002,-4.6498 -1.26813,-6.37685 -0.63809,-11.922373 -6.03265,-16.811693 -0.46095,-0.0604 -0.92996,-0.11876 -1.39292,-0.16707 3.47828,2.63689 5.73071,6.81364 5.73071,11.513753 0,7.96906 -6.46139,14.42845 -14.43447,14.42845 -7.96704,0 -14.42843,-6.45939 -14.42843,-14.42845 0,-4.909453 2.45171,-9.247233 6.19972,-11.853933 l -1.30033,0.0785 c -3.37966,2.77779 -5.5415,6.97468 -5.57774,11.674793 0,2.90662 0.21538,6.76131 -2.67916,8.52461 l -0.0121,0.0101 c -1.29228,0.78101 -2.94285,1.00242 -4.82491,0.98833 -7.82412,-0.0302 -24.38823,-0.78905 -30.26589,-7.0874 l -3.14615,0 c -2.5604,0.004 -2.5604,-3.8386 -0.002,-3.8386 z m 66.7013,-36.044903 c -8.97349,1.49759 -14.16273,4.09221 -19.2473,7.78386 -4.64778,3.3877 -6.52178,5.76091 -9.57132,7.40142 3.85671,-0.36635 7.79796,-0.59582 11.57817,-0.71659 0.32005,-3.62523 3.2931,-6.5862 6.95456,-8.74201 2.92272,-1.72102 6.60229,-3.12803 10.66834,-4.11838 l -0.38245,-1.6083 z m 1.30637,5.33417 c -3.7923,0.92392 -7.10552,2.21016 -9.64177,3.70171 -3.12401,1.83174 -4.65784,3.72386 -5.0101,5.34625 3.14012,-0.0403 6.09103,0.004 8.71584,0.11071 2.70734,0.11071 5.56968,0.24759 8.41994,0.34622 -0.75282,-2.84221 -1.62642,-6.1192 -2.48391,-9.50489 z m 2.5141,-5.87363 0.33012,1.37682 c 4.59946,-0.76892 9.26334,-0.93599 13.92722,-1.0306 5.54754,-0.11473 9.83702,0.0423 13.04154,0.81925 0.008,-0.43076 0.0644,-0.85951 0.17513,-1.27819 -7.0089,-1.41506 -19.71228,-0.80918 -27.47401,0.11272 z m 29.82104,6.71502 c -1.41909,-1.74116 -4.93159,-2.74962 -15.48319,-2.53222 -4.37804,0.0886 -8.76213,0.23148 -13.08583,0.93197 0.95009,3.74197 1.91628,7.34304 2.7154,10.36842 0.66023,0.0101 1.31241,0.0181 1.95452,0.0201 3.30719,0.0101 6.31043,-0.1248 12.46988,-0.38849 5.66027,-0.24356 11.32053,-0.46095 16.984805,-0.66425 -1.620385,-2.24036 -5.555585,-7.73556 -5.555585,-7.73556 z m -24.84717,12.62286 c 0.13285,0.52134 0.25563,1.00444 0.36232,1.44728 1.71901,7.12564 9.60151,6.48152 9.84104,6.45736 l 15.298,-0.34219 c 2.26047,0 12.669158,-0.12883 9.688061,-5.84746 l -2.077308,-2.86032 c -6.519763,0.2355 -13.041543,0.47705 -19.575403,0.76087 -6.19971,0.26772 -9.24723,0.39855 -12.59871,0.38648 l -0.938,-0.002 z m 26.71313,-17.43166 c -0.20935,-0.23753 -0.38849,-0.58777 -0.52738,-0.87561 0,0 -0.0181,0.0664 -0.0221,0.14694 -0.0282,0.43478 0.13285,0.95411 0.58373,1.58616 2.693255,3.79632 5.899796,8.24683 8.268974,11.51778 l 5.175153,-0.18317 c -5.944121,-5.38248 -13.393847,-12.09549 -13.478377,-12.1921 z m 78.072139,38.955553 0.02214,0.21135 c 2.898569,-0.50322 4.927567,-1.20975 6.352696,-1.98472 l -6.568076,0 c 0.06844,0.58576 0.130838,1.17554 0.193238,1.77337 z m -29.847208,-2.77377 c 0,5.84947 4.740368,10.59186 10.589841,10.59186 5.849473,0 10.591854,-4.74038 10.591854,-10.59186 0,-5.851493 -4.740368,-10.591853 -10.591854,-10.591853 -5.849473,0.002 -10.589841,4.74237 -10.589841,10.591853 z m -74.489191,4.81685 c 0.44888,1.18761 1.5459,1.45935 2.78384,1.45935 l 57.92507,0.008 c 3.830541,0 5.114768,-1.16144 5.28989,-5.28385 l -66.64494,0.002 c 0.18921,1.22988 0.38849,2.49801 0.64614,3.81444 z m -30.49737,-4.81685 c 0,5.84947 4.74037,10.59186 10.58783,10.59186 5.84947,0 10.59185,-4.74038 10.59185,-10.59186 0,-5.851493 -4.74037,-10.591853 -10.59185,-10.591853 -5.84746,0.002 -10.58783,4.74237 -10.58783,10.591853 z m -40.32433,-1.50364 14.8753,0 c 2.5604,0 2.5604,3.84061 0,3.84061 l -9.88533,0 c 6.82975,2.76974 18.27105,3.22868 23.31939,3.24478 1.68681,0.0161 2.46378,-0.21538 2.82409,-0.43679 1.03262,-0.62803 0.83133,-4.39415 0.83133,-5.25165 0.0262,-4.178773 1.39896,-8.045543 3.70574,-11.179613 -5.12483,0.53543 -10.21545,1.2963 -15.21749,2.12964 -2.52417,0.42069 -3.15622,-3.36556 -0.63205,-3.78827 15.15307,-2.52618 31.10124,-4.35188 46.32074,-1.47545 2.06523,0.3905 1.95653,3.00123 0.46095,3.66146 1.68882,2.51208 2.44165,5.1208 2.96097,7.920733 l 67.492368,0 c 0.626011,-4.166693 2.600661,-7.894573 5.460985,-10.722683 -8.719862,0.26972 -17.399467,1.11514 -25.52955,1.9988 -2.5443,0.27778 -2.960969,-3.54068 -0.414657,-3.81645 15.70662,-1.71096 32.411638,-3.26693 48.349742,-1.12722 l 0.239534,0.0322 c 4.057997,0.55355 8.06567,1.35267 11.994842,2.44768 2.465796,0.68841 1.433181,4.38408 -1.032616,3.69769 -1.71096,-0.47706 -3.450101,-0.89171 -5.21541,-1.25403 1.906211,2.58455 2.886491,5.50929 3.492372,8.744013 l 10.438874,0 c 0.03623,-0.14694 0.0624,-0.29187 0.08454,-0.42472 l 0.851454,-7.371223 c -0.0081,-0.63406 -0.110709,-1.1393 -0.509262,-1.53383 0.04831,2.13166 -0.006,3.75204 -0.006,3.75204 -0.08454,2.5604 -3.923132,2.42956 -3.836578,-0.12883 0,0 0.05435,-1.65459 0,-3.7621 0,-0.40257 0.02617,-2.80597 -0.354269,-3.35549 -0.362322,-0.27376 -0.426734,-0.31603 -0.573676,-0.40459 -1.799528,-1.06885 -12.824154,-6.28225 -53.015631,-4.70414 -6.455355,0.25765 -12.910709,0.48108 -19.374115,0.71257 0,0 0.835351,1.20371 1.00846,1.55194 4.39415,8.80641 -6.558012,11.15948 -13.220687,11.15948 l -15.09671,0.33817 c -6.2118,0.48913 -12.20821,-2.83818 -13.79639,-9.39015 -0.16707,-0.71257 -0.37842,-1.53181 -0.61192,-2.44366 -2.39132,-0.0765 -5.35228,-0.19927 -9.47871,-0.37238 l -0.11877,-0.004 c -9.85916,-0.39855 -24.48888,0.15499 -35.33234,2.31282 -6.13128,1.2178 -12.75773,3.08375 -16.28231,8.74803 -1.94647,3.14012 -1.0769,5.237563 -5.48514,5.499233 0.0443,0.4207 0.14895,0.80315 0.30797,1.1554 z" /></g></svg>